<svg width="47" height="37" viewBox="0 0 47 37" fill="none" xmlns="http://www.w3.org/2000/svg">
    <path d="M0 16.1875V35.8438C0 36.4826 0.517422 37 1.15625 37H6.9375V13.875H2.3125C1.03557 13.875 0 14.9106 0 16.1875ZM26.0156 12.7188H24.2812V9.82813C24.2812 9.50872 24.0225 9.25001 23.7031 9.25001H22.5469C22.2275 9.25001 21.9687 9.50872 21.9687 9.82813V14.4531C21.9687 14.7725 22.2275 15.0313 22.5469 15.0313H26.0156C26.335 15.0313 26.5937 14.7725 26.5937 14.4531V13.2969C26.5937 12.9775 26.335 12.7188 26.0156 12.7188ZM35.9702 8.09665L24.4077 0.388073C24.0278 0.135021 23.5815 0 23.125 0C22.6685 0 22.2222 0.135021 21.8423 0.388073L10.2798 8.09665C9.96308 8.30779 9.70339 8.59384 9.52375 8.92942C9.34411 9.26499 9.25008 9.63972 9.25 10.0204V37H18.5V26.5938C18.5 25.9549 19.0174 25.4375 19.6562 25.4375H26.5937C27.2326 25.4375 27.75 25.9549 27.75 26.5938V37H37V10.0211C37 9.24784 36.6134 8.52518 35.9702 8.09665ZM23.125 18.5C19.9323 18.5 17.3437 15.9115 17.3437 12.7188C17.3437 9.52606 19.9323 6.93751 23.125 6.93751C26.3177 6.93751 28.9062 9.52606 28.9062 12.7188C28.9062 15.9115 26.3177 18.5 23.125 18.5ZM43.9375 13.875H39.3125V37H45.0937C45.7326 37 46.25 36.4826 46.25 35.8438V16.1875C46.25 14.9106 45.2144 13.875 43.9375 13.875Z"
          fill="#636363"/>
</svg>
