<svg width="468" height="554" viewBox="0 0 468 554" fill="currentColor" xmlns="http://www.w3.org/2000/svg">
    <path d="M444.998 552.91C445.035 553.242 445.035 553.578 444.998 553.91H1.24784C1.10737 553.609 1.09161 553.264 1.20399 552.951C1.31637 552.639 1.54779 552.383 1.84784 552.24C4.17784 551.05 6.71784 551.24 9.19784 551.24C151.751 551.24 294.298 551.24 436.838 551.24C439.638 551.26 442.558 550.85 444.998 552.91Z"
          fill="#D6D5D5"/>
    <path d="M1.29784 552.82L1.24784 553.88C-0.822164 552.98 0.307836 551.18 0.307836 549.88C0.241169 485.24 0.221169 420.613 0.247836 356L1.31784 356.06C3.02784 357.98 2.85784 360.38 2.85784 362.69C2.85784 423.87 2.85784 485.05 2.85784 546.23C2.85784 548.5 2.99784 550.9 1.29784 552.82Z"
          fill="#E6E5E5"/>
    <path d="M1.29784 552.82C1.29784 487.22 1.29784 421.62 1.29784 356.02C15.9578 356.02 30.6078 356.09 45.2978 355.84C49.2978 355.78 50.2978 356.94 50.2978 360.89C50.1645 406.363 50.1345 451.833 50.2078 497.3C50.2078 503.99 50.2078 503.99 56.9178 503.99H389.598C395.978 503.99 395.988 503.99 395.988 497.47C395.988 452.33 396.088 407.19 395.848 362.05C395.848 356.8 397.368 355.69 402.268 355.82C415.078 356.15 427.908 356.01 440.728 355.88C443.848 355.88 445.118 356.62 445.108 360.03C444.994 424.323 444.944 488.617 444.958 552.91H8.28784C5.99784 552.88 3.62784 552.84 1.29784 552.82Z"
          fill="#BBBABA"/>
    <path d="M104.998 339.58C108.148 324.58 111.248 310.09 114.168 295.58C114.778 292.58 116.448 293.5 118.168 293.87C136.058 297.58 153.948 301.25 171.828 304.99C231.941 317.583 292.085 330.153 352.258 342.7C355.948 343.46 356.348 344.76 355.628 348C352.628 361.46 349.758 374.95 347.078 388.48C346.468 391.48 345.528 392.17 342.468 391.48C269.015 376.013 195.551 360.607 122.078 345.26C117.198 344.26 112.338 343.12 107.448 342.26C105.418 341.9 104.348 341.22 104.998 339.58Z"
          fill="#FE7800"/>
    <path d="M157.818 181.61C158.818 182.07 159.918 182.54 160.978 183.03C233.031 216.783 305.088 250.517 377.148 284.23C380.058 285.59 380.598 286.71 379.148 289.72C373.438 301.72 367.868 313.79 362.628 326C360.898 330 359.348 330.55 355.388 328.69C311.061 307.83 266.671 287.087 222.218 266.46C195.268 253.91 168.328 241.33 141.288 228.95C137.478 227.2 136.528 225.8 138.518 221.69C144.368 209.58 149.658 197.19 155.248 184.95C155.808 183.72 155.828 181.88 157.818 181.61Z"
          fill="#FE7800"/>
    <path d="M320.758 0C322.608 0.32 323.088 1.93 323.928 3.05C341.721 26.9633 359.481 50.8867 377.208 74.82C406.541 114.4 435.918 153.957 465.338 193.49C467.968 197.02 467.788 198.55 464.218 201.07C453.358 208.75 442.738 216.79 432.118 224.82C429.728 226.62 428.428 226.94 426.348 224.12C378.948 160.04 331.474 96 283.928 32C282.768 30.44 281.138 29.21 283.838 27.25C295.688 18.64 307.398 9.84 319.158 1.12C319.688 0.68 320.248 0.34 320.758 0Z"
          fill="#FE7800"/>
    <path d="M230.328 79.27C231.328 80.05 232.328 80.86 233.328 81.7L397.998 218.7C404.268 223.91 410.448 229.24 416.848 234.29C419.298 236.22 419.298 237.53 417.348 239.83C408.448 250.37 399.631 261 390.898 271.72C388.898 274.18 387.718 274.02 385.428 272.11C324.308 221.157 263.138 170.28 201.918 119.48C198.998 117.06 198.998 115.71 201.388 112.93C210.168 102.7 218.658 92.22 227.298 81.87C228.108 80.9 228.638 79.54 230.328 79.27Z"
          fill="#FE7800"/>
    <path d="M222.628 454.23C183.348 454.23 144.068 454.17 104.798 454.32C100.648 454.32 99.0278 453.65 99.1678 448.96C99.5378 435.82 99.3978 422.66 99.1678 409.51C99.1678 406.2 99.7778 404.93 103.468 404.93C183.015 405.043 262.568 405.043 342.128 404.93C345.618 404.93 346.188 406.17 346.128 409.23C345.998 422.72 345.918 436.23 346.128 449.69C346.208 453.57 344.948 454.31 341.348 454.3C301.848 454.18 262.238 454.23 222.628 454.23Z"
          fill="#FE7800"/>
</svg>
