<svg xmlns="http://www.w3.org/2000/svg" xmlns:xlink="http://www.w3.org/1999/xlink" viewBox="0 0 419 598">
    <defs>
        <style>.i{fill:#408f94;font-family:HelveticaNeueLTStd-Lt, Helvetica Neue LT
            Std;font-size:78px;}.j{fill:#67bcc3;}.k{fill:#fd695f;}.l{fill:#bfbfc1;}.m{fill:#92ccce;}.n{fill:#e93d33;}.o{fill:#e34844;}.p{fill:url(#f);}.q{fill:#bb5550;}.r{fill:url(#g);}.s{fill:#ff6b67;}.t{fill:#f79800;}.u{fill:#cb5f53;}.v{fill:url(#h);}.w{fill:url(#d);}.x{fill:url(#e);}.y{fill:#dcdcdc;}.a`{fill:#428d93;}
        </style>
        <linearGradient id="d" x1="0" y1="299" x2="419" y2="299" gradientTransform="matrix(1, 0, 0, 1, 0, 0)"
                        gradientUnits="userSpaceOnUse">
            <stop offset="0" stop-color="#fdd945"/>
            <stop offset="1" stop-color="#e34941"/>
        </linearGradient>
        <linearGradient id="e" x1="24" y1="295.5" x2="76.38" y2="295.5" gradientTransform="matrix(1, 0, 0, 1, 0, 0)"
                        gradientUnits="userSpaceOnUse">
            <stop offset="0" stop-color="#ffd747"/>
            <stop offset="1" stop-color="#da4d43"/>
        </linearGradient>
        <linearGradient id="f" x1="107.62" x2="165.38" xlink:href="#e"/>
        <linearGradient id="g" x1="196.62" x2="285.38" xlink:href="#e"/>
        <linearGradient id="h" x1="316.62" x2="373" xlink:href="#e"/>
    </defs>
    <path d="M419,89.98v508.02H0V0H341c26,29.99,52,59.99,78,89.98Z" fill="#d"/>
    <rect x="23" y="44" width="90" height="124" fill="#92ccce"/>
    <rect x="138" y="114" width="173" height="19" fill="#92ccce"/>
    <rect x="138" y="145" width="114" height="19" fill="#92ccce"/>
    <rect x="23" y="185" width="348" height="19" fill="#92ccce"/>
    <rect x="23" y="211" width="348" height="19" fill="#92ccce"/>
    <rect x="23" y="237" width="262" height="19" fill="#92ccce"/>
    <rect x="210" y="448" width="173" height="19" fill="#bfbfc1"/>
    <rect x="233" y="401" width="30" height="19" fill="#bb5550"/>
    <rect x="270" y="378" width="30" height="42" fill="#cb5f53"/>
    <rect x="306" y="364" width="30" height="56" fill="#e34844"/>
    <rect x="343" y="337" width="30" height="83" fill="#ff6b67"/>
    <path d="M76.38,292c-.25,1.13-.38,2.3-.38,3.5s.13,2.37,.38,3.5H24v-7h52.38Z" fill="#e"/>
    <path d="M165,295.5c0,1.2,.13,2.37,.38,3.5h-57.76c.25-1.13,.38-2.3,.38-3.5s-.13-2.37-.38-3.5h57.76c-.25,1.13-.38,2.3-.38,3.5Z"
          fill="#f"/>
    <path d="M285,295.5c0,1.2,.13,2.37,.38,3.5h-88.76c.25-1.13,.38-2.3,.38-3.5s-.13-2.37-.38-3.5h88.76c-.25,1.13-.38,2.3-.38,3.5Z"
          fill="#g"/>
    <path d="M373,292v7h-56.38c.25-1.13,.38-2.3,.38-3.5s-.13-2.37-.38-3.5h56.38Z" fill="#h"/>
    <rect x="210" y="473" width="173" height="19" fill="#bfbfc1"/>
    <rect x="210" y="498" width="173" height="19" fill="#bfbfc1"/>
    <rect x="26" y="498" width="173" height="19" fill="#bfbfc1"/>
    <rect x="26" y="523" width="173" height="19" fill="#bfbfc1"/>
    <rect x="26" y="473" width="173" height="19" fill="#bfbfc1"/>
    <rect x="26" y="448" width="173" height="19" fill="#bfbfc1"/>
    <path d="M419,89.98c-26,.67-52,1.35-78,2.02V0c26,29.99,52,59.99,78,89.98Z" fill="#dcdcdc"/>
    <text transform="translate(136.4 95.8)" fill="#408f94"
          font-family="HelveticaNeueLTStd-Lt, Helvetica Neue LT Std" font-size="78">
        <tspan x="0" y="0">CV</tspan>
    </text>
    <path d="M318.65,292c-1.62-8.26-8.91-14.5-17.65-14.5s-16.03,6.24-17.65,14.5c-.23,1.13-.35,2.3-.35,3.5s.12,2.37,.35,3.5c1.62,8.26,8.91,14.5,17.65,14.5s16.03-6.24,17.65-14.5c.23-1.13,.35-2.3,.35-3.5s-.12-2.37-.35-3.5Zm-17.65,19.5c-7.64,0-14.02-5.35-15.62-12.5-.25-1.13-.38-2.3-.38-3.5s.13-2.37,.38-3.5c1.6-7.15,7.98-12.5,15.62-12.5s14.02,5.35,15.62,12.5c.25,1.13,.38,2.3,.38,3.5s-.13,2.37-.38,3.5c-1.6,7.15-7.98,12.5-15.62,12.5Z"
          fill="#e93d33"/>
    <path d="M198.65,292c-1.62-8.26-8.91-14.5-17.65-14.5s-16.03,6.24-17.65,14.5c-.23,1.13-.35,2.3-.35,3.5s.12,2.37,.35,3.5c1.62,8.26,8.91,14.5,17.65,14.5s16.03-6.24,17.65-14.5c.23-1.13,.35-2.3,.35-3.5s-.12-2.37-.35-3.5Zm-17.65,19.5c-7.64,0-14.02-5.35-15.62-12.5-.25-1.13-.38-2.3-.38-3.5s.13-2.37,.38-3.5c1.6-7.15,7.98-12.5,15.62-12.5s14.02,5.35,15.62,12.5c.25,1.13,.38,2.3,.38,3.5s-.13,2.37-.38,3.5c-1.6,7.15-7.98,12.5-15.62,12.5Z"
          fill="#fd695f"/>
    <path d="M109.65,292c-1.62-8.26-8.91-14.5-17.65-14.5s-16.03,6.24-17.65,14.5c-.23,1.13-.35,2.3-.35,3.5s.12,2.37,.35,3.5c1.62,8.26,8.91,14.5,17.65,14.5s16.03-6.24,17.65-14.5c.23-1.13,.35-2.3,.35-3.5s-.12-2.37-.35-3.5Zm-17.65,19.5c-7.64,0-14.02-5.35-15.62-12.5-.25-1.13-.38-2.3-.38-3.5s.13-2.37,.38-3.5c1.6-7.15,7.98-12.5,15.62-12.5s14.02,5.35,15.62,12.5c.25,1.13,.38,2.3,.38,3.5s-.13,2.37-.38,3.5c-1.6,7.15-7.98,12.5-15.62,12.5Z"
          fill="#f79800"/>
    <g>
        <path d="M212.88,360.89c-7.65-14.79-23.08-24.89-40.88-24.89-25.41,0-46,20.59-46,46s20.59,46,46,46,46-20.59,46-46c0-7.61-1.85-14.79-5.12-21.11Zm-40.88,44.11c-12.7,0-23-10.3-23-23s10.3-23,23-23c10.58,0,19.49,7.14,22.16,16.87,.55,1.95,.84,4.01,.84,6.13,0,12.7-10.3,23-23,23Z"
              fill="#67bcc3"/>
        <path d="M212.88,360.89c-6.24,5-12.48,9.99-18.72,14.98-2.67-9.73-11.58-16.87-22.16-16.87v-23c17.8,0,33.23,10.1,40.88,24.89Z"
              fill="#428d93"/>
    </g>
    <g>
        <path d="M108.88,360.89c-7.65-14.79-23.08-24.89-40.88-24.89-25.41,0-46,20.59-46,46s20.59,46,46,46,46-20.59,46-46c0-7.61-1.85-14.79-5.12-21.11Zm-40.88,44.11c-12.7,0-23-10.3-23-23s10.3-23,23-23c10.58,0,19.49,7.14,22.16,16.87,.55,1.95,.84,4.01,.84,6.13,0,12.7-10.3,23-23,23Z"
              fill="#67bcc3"/>
        <path d="M108.88,360.89c-6.24,5-12.48,9.99-18.72,14.98-2.67-9.73-11.58-16.87-22.16-16.87v-23c17.8,0,33.23,10.1,40.88,24.89Z"
              fill="#428d93"/>
    </g>
</svg>