<svg width="487" height="448" viewBox="0 0 487 448" fill="currentColor" xmlns="http://www.w3.org/2000/svg">
    <path d="M458.755 172.626C460.05 175.823 460.945 179.02 461.952 182.216C469.945 206.725 477.937 231.271 485.93 255.854C487.292 259.676 487.356 263.84 486.11 267.702C484.864 271.562 482.38 274.904 479.04 277.209C456.821 293.416 434.607 309.576 412.399 325.688L306.546 402.571C285.946 417.488 265.341 432.46 244.731 447.485C244.581 447.648 244.4 447.778 244.197 447.866C243.996 447.954 243.777 448 243.556 448C243.336 448 243.117 447.954 242.915 447.866C242.712 447.778 242.532 447.648 242.381 447.485C201.556 417.808 160.719 388.148 119.872 358.503L8.44011 277.576C5.97392 275.933 3.9369 273.723 2.49918 271.132C1.06148 268.539 0.264852 265.641 0.175836 262.679C0.140801 262.532 0.0813692 262.392 0 262.264V262.024C0.164589 261.095 0.218249 260.152 0.159851 259.211C0.44023 257.165 0.977293 255.161 1.75836 253.249C4.52377 244.554 7.33714 235.763 10.2145 226.971C13.0918 218.18 16.033 209.037 18.9743 200.086C21.8036 191.471 24.569 182.824 27.3824 174.209C27.4868 173.622 27.74 173.072 28.1177 172.61C28.8051 172.29 29.0129 172.914 29.3006 173.265C31.7943 176.302 34.192 179.419 36.5898 182.52C41.3853 188.706 46.1808 194.892 50.9764 201.077C55.1485 206.464 59.3525 211.819 63.5406 217.189C66.7376 221.313 70.0306 225.389 73.2276 229.529C77.048 234.484 80.9324 239.375 84.7688 244.33C88.9728 249.748 93.2089 255.135 97.413 260.538C101.345 265.609 105.288 270.671 109.242 275.722C114.933 283.032 120.639 290.332 126.362 297.62C130.795 303.311 135.228 308.99 139.661 314.659C146.423 323.354 153.233 332.018 159.994 340.697C165.93 348.337 171.876 355.957 177.834 363.554C181.718 368.509 185.555 373.512 189.439 378.451C197.16 388.265 204.817 398.111 212.505 407.941C217.429 414.239 222.336 420.568 227.244 426.866C232.583 433.723 237.89 440.564 243.309 447.357C243.405 447.453 243.484 447.581 243.58 447.677C243.563 447.605 243.563 447.53 243.58 447.458C243.596 447.386 243.63 447.319 243.676 447.262C245.275 445.391 246.761 443.457 248.264 441.523C254.85 433.148 261.372 424.724 267.942 416.333C271.698 411.538 275.471 406.742 279.131 401.947C282.568 397.488 286.085 393.108 289.521 388.649C291.36 386.267 293.262 383.933 295.084 381.552C299.752 375.446 304.531 369.436 309.247 363.362C313.35 358.035 317.49 352.706 321.667 347.378C329.356 337.66 336.933 327.846 344.558 318.08L362.621 294.951C369.079 286.671 375.542 278.403 382.011 270.144C385.624 265.541 389.172 260.857 392.785 256.254C397.58 250.244 402.168 244.186 406.916 238.192C410.992 233.029 415.004 227.819 419.048 222.64C424.707 215.399 430.334 208.142 436.009 200.918C441.332 194.124 446.607 187.283 451.994 180.49C453.848 178.125 455.638 175.695 457.588 173.409C457.924 173.122 458.18 172.706 458.755 172.626Z"
          fill="#FE9D00"/>
    <path d="M92.5055 0C92.6713 0.0925022 92.8487 0.162387 93.0331 0.207791C94.6405 0.516237 96.1321 1.26099 97.3444 2.36049C98.5567 3.46 99.4432 4.87188 99.9066 6.44151C102.443 14.1777 104.963 21.9246 107.468 29.6821C116.739 58.1867 126 86.654 135.25 115.084C141.345 133.86 147.409 152.62 153.441 171.363C153.441 171.555 153.441 171.747 153.568 171.939C153.76 172.514 153.313 172.61 152.929 172.69C152.461 172.786 151.983 172.818 151.506 172.786H30.5954C29.8601 172.786 29.0768 172.946 28.4534 172.354C28.3466 172.118 28.2913 171.862 28.2913 171.603C28.2913 171.344 28.3466 171.088 28.4534 170.852C29.4445 167.303 30.6913 163.835 31.8263 160.335C34.6077 151.81 37.3838 143.285 40.1545 134.76C44.4172 121.6 48.6798 108.451 52.9425 95.312C55.4362 87.5971 57.9458 79.8768 60.4715 72.1513C64.1907 60.7601 67.9205 49.353 71.661 37.9298C74.6822 28.6591 77.6554 19.3885 80.7246 10.1338C81.0443 9.15878 81.316 8.16777 81.6357 7.17677C82.8825 3.19678 85.2323 0.479517 89.6442 0H92.5055Z"
          fill="#F52D10"/>
    <path d="M333.352 172.179C335.287 166.153 337.205 160.111 339.155 154.101C345.645 134.11 352.14 114.125 358.641 94.1452C364.503 76.1153 370.363 58.0909 376.224 40.0716C379.581 29.762 383.034 19.4684 386.231 9.11086C387.59 4.68331 389.572 1.11891 394.479 0.031999H397.325C398.159 0.260375 398.981 0.532478 399.786 0.847179C401.092 1.44474 402.245 2.33055 403.159 3.43798C404.072 4.54541 404.723 5.84558 405.061 7.24074C407.299 14.2257 409.569 21.1787 411.839 28.1477L457.972 170.021C458.228 170.804 458.42 171.619 458.659 172.386C458.309 172.656 457.87 172.788 457.429 172.754H335.942C335.41 172.789 334.876 172.789 334.344 172.754C333.976 172.626 333.48 172.754 333.352 172.179Z"
          fill="#F52D10"/>
    <path d="M28.3575 172.626C28.3575 172.354 28.2456 172.083 28.5014 171.875C28.5014 172.115 28.6612 172.338 28.9649 172.338H152.21C152.689 172.338 153.361 172.69 153.632 171.891C153.824 172.179 153.952 172.53 154.432 172.45C154.666 172.426 154.901 172.426 155.135 172.45H331.786C332.313 172.45 332.921 172.658 333.384 172.147C333.864 172.546 334.455 172.354 334.983 172.354H458.691V172.578L449.1 184.87C443.271 192.329 437.436 199.788 431.597 207.247C427.904 212.042 424.291 216.742 420.599 221.473C416.139 227.195 411.615 232.869 407.155 238.576C403.127 243.738 399.163 248.949 395.119 254.096C390.659 259.818 386.135 265.493 381.659 271.199C379.182 274.396 376.736 277.592 374.258 280.789C370.342 285.84 366.41 290.859 362.477 295.894L345.101 318.08C340.349 324.185 335.595 330.28 330.843 336.365C326.863 341.464 322.85 346.579 318.886 351.63C316.089 355.146 313.387 358.743 310.606 362.275C306.37 367.662 302.182 373.096 297.946 378.499C293.71 383.901 289.426 389.336 285.158 394.802C280.889 400.269 276.574 405.799 272.274 411.298C267.19 417.787 262.139 424.293 257.056 430.782L244.555 446.766C244.468 446.923 244.346 447.059 244.199 447.164C244.054 447.27 243.886 447.34 243.708 447.373C243.598 447.161 243.54 446.926 243.54 446.686C243.54 446.446 243.598 446.211 243.708 445.999C244.747 443.01 245.658 439.973 246.649 436.968C248.04 432.716 249.399 428.448 250.774 424.181C251.781 420.984 252.852 417.947 253.843 414.814C255.165 410.702 256.496 406.598 257.839 402.507C259.278 398.063 260.728 393.62 262.187 389.176C263.562 384.972 264.888 380.737 266.263 376.533C267.638 372.329 268.853 368.541 270.164 364.561C271.634 360.085 273.041 355.578 274.527 351.118C275.503 348.177 276.446 345.252 277.389 342.295C278.811 337.852 280.266 333.408 281.721 328.981C283.175 324.553 284.47 320.381 285.909 316.098C286.852 313.332 287.731 310.535 288.642 307.754C290.23 302.97 291.787 298.175 293.31 293.369C294.669 289.149 296.091 284.961 297.402 280.709C298.217 278.024 299.112 275.371 300.008 272.717C301.526 268.178 302.949 263.591 304.451 259.051C305.954 254.512 307.329 250.244 308.767 245.848C310.206 241.453 311.517 237.409 312.844 233.189C313.707 230.472 314.602 227.755 315.497 225.053C317.016 220.514 318.422 215.943 319.941 211.387C321.46 206.832 322.834 202.676 324.225 198.296C325.616 193.917 326.958 189.857 328.317 185.637C329.404 182.328 330.347 178.972 331.514 175.711C331.77 175.04 331.914 174.336 332.122 173.665C332.329 172.994 332.122 172.786 331.45 172.818C331.179 172.818 330.907 172.818 330.619 172.818H156.638C154.176 172.818 154.56 172.962 155.151 174.784C156.558 179.196 158.012 183.591 159.451 188.003C160.794 192.142 162.12 196.282 163.463 200.422C164.902 204.866 166.373 209.309 167.811 213.753C169.522 219.059 171.28 224.366 172.974 229.737C174.381 234.148 175.868 238.544 177.274 242.955C178.681 247.367 180.04 251.459 181.398 255.742C182.757 260.026 184.132 264.086 185.475 268.274C186.817 272.462 188.304 276.937 189.695 281.269C190.606 284.082 191.533 286.911 192.444 289.74C193.931 294.376 195.465 298.995 196.952 303.63C198.311 307.882 199.765 312.118 201.124 316.417C202.866 321.884 204.753 327.302 206.447 332.785C207.374 335.742 208.365 338.651 209.324 341.592C211.147 347.202 212.921 352.781 214.759 358.423C215.83 361.7 216.885 364.976 217.956 368.253C219.363 372.489 220.738 376.757 222.096 381.04C222.944 383.726 223.855 386.379 224.718 389.032C226.189 393.62 227.691 398.223 229.178 402.81C230.105 405.703 231.016 408.612 232.007 411.506C232.998 414.399 233.957 417.436 234.916 420.409L239.328 433.963C240.607 437.927 241.854 441.955 243.213 445.823C243.363 446.101 243.441 446.411 243.441 446.726C243.441 447.041 243.363 447.351 243.213 447.629C241.614 445.871 240.192 443.905 238.705 442.019C235.012 437.32 231.288 432.604 227.515 427.889C225.086 424.788 222.72 421.639 220.29 418.522C216.358 413.488 212.425 408.469 208.493 403.418C204.145 397.823 199.845 392.229 195.433 386.619C191.021 381.008 186.354 374.982 181.814 369.18C176.203 362.003 170.625 354.795 164.998 347.634C158.844 339.642 152.561 331.842 146.375 323.914C142.667 319.198 139.054 314.419 135.361 309.704C130.902 303.982 126.394 298.292 121.918 292.585C119.776 289.852 117.682 287.087 115.524 284.354C111.847 279.558 108.139 274.907 104.446 270.176C98.0524 262.056 91.8662 253.904 85.5041 245.816C80.9643 240.041 76.4458 234.26 71.9488 228.474C68.0324 223.391 64.0362 218.356 60.0878 213.289C54.4291 206.048 48.7544 198.904 43.1437 191.551C38.6199 185.685 34.0002 179.883 29.4285 173.969C29.2047 173.585 28.7571 173.122 28.3575 172.626Z"
          fill="#FE6000"/>
    <path d="M243.261 447.661C242.827 445.583 242.217 443.545 241.438 441.571C240.479 438.199 239.312 434.89 238.241 431.565C237.586 429.583 236.899 427.601 236.259 425.603C235.316 422.694 234.485 419.737 233.462 416.844C232.439 413.951 231.496 410.93 230.537 407.973C229.577 405.016 228.427 401.723 227.515 398.543C227.116 397.136 226.572 395.777 226.141 394.403C224.766 390.087 223.263 385.803 221.873 381.504C220.194 376.245 218.468 371.018 216.757 365.776C215.271 361.252 213.8 356.713 212.346 352.189C211.019 348.033 209.74 343.862 208.397 339.706C207.054 335.55 205.488 331.027 204.065 326.679C202.643 322.331 201.3 317.984 199.877 313.636C198.455 309.288 196.776 304.557 195.353 299.97C194.203 296.326 192.956 292.713 191.821 289.085C190.222 284.29 188.72 279.415 187.121 274.587C185.874 270.847 184.643 267.123 183.445 263.399C182.246 259.674 181.159 256.126 179.928 252.514C178.553 248.534 177.402 244.522 176.107 240.462C174.637 235.938 173.086 231.431 171.616 226.891C170.305 222.848 169.074 218.788 167.763 214.744C166.708 211.547 165.573 208.35 164.566 205.153C163.639 202.308 162.808 199.447 161.913 196.586C161.481 195.227 161.002 193.901 160.57 192.542C159.291 188.658 158.028 184.758 156.75 180.874C155.982 178.508 155.247 176.079 154.448 173.793C154.192 173.042 154.176 172.578 155.183 172.706C155.417 172.722 155.652 172.722 155.886 172.706H333.065C331.674 176.91 330.315 180.986 328.989 185.062C328.045 187.907 327.15 190.768 326.239 193.613L323.042 203.203L320.261 211.851L317.064 221.521L314.346 230.168C313.371 233.173 312.38 236.162 311.405 239.151C310.43 242.14 309.407 245.305 308.416 248.374C307.712 250.5 307.009 252.626 306.322 254.767C305.411 257.644 304.515 260.554 303.604 263.431C303.045 265.173 302.453 266.883 301.894 268.609C300.871 271.71 299.88 274.811 298.857 277.912C297.834 281.013 296.731 284.306 295.66 287.502C294.733 290.316 293.837 293.129 292.926 295.942L289.729 305.82C288.738 308.857 287.752 311.894 286.772 314.931C286.085 317.041 285.397 319.135 284.726 321.244C283.799 324.169 282.904 327.095 281.96 330.02C281.017 332.945 279.93 335.982 278.955 338.987C277.98 341.992 277.165 344.773 276.238 347.65C275.199 350.847 274.112 354.043 273.041 357.24C271.65 361.476 270.291 365.712 268.917 369.947C268.277 371.897 267.606 373.831 266.982 375.782C266.023 378.818 265.096 381.871 264.121 384.892C263.274 387.53 262.395 390.135 261.532 392.756C260.253 396.641 258.99 400.541 257.711 404.425C255.825 410.275 253.927 416.136 252.02 422.007C251.013 425.124 249.942 428.209 248.935 431.31C247.593 435.465 246.314 439.637 244.987 443.809C244.587 445.088 244.156 446.35 243.724 447.629C243.724 447.901 243.516 447.869 243.261 447.661Z"
          fill="#F52D10"/>
</svg>
