<svg xmlns="http://www.w3.org/2000/svg" viewBox="0 0 1070.35 278.38">
        <g id="c">
            <g>
                <path d="M409.41,277.98c2.69-.18,5.2-.36,7.89-.36-2.69,0-5.38-.72-7.89,.36Zm9.5-.36c3.22,0,6.45,.18,9.68,.36-3.23-.9-6.46-.54-9.68-.36Zm115.24-69.9c-.35-.18-.89-.18-1.25-.36,.36,.36,.9,.36,1.43,.54,.39,0,.78,.09,1.18,.14-.4-.06-.83-.19-1.36-.32Zm6.98,4.31c-.23,.09-.45,.15-.66,.19-.19,.03-.37,.05-.55,.05-2.01,0-3.49-1.92-5.59-1.32,1.62,1.07,3.41,1.79,5.92,1.97-.9,.54-1.79,1.07-2.33,1.79,.14,.08,.27,.14,.4,.19,.24,.11,.46,.17,.65,.21,.28,.05,.51,.02,.69-.06,.09-.04,.16-.09,.23-.15,.08-.06,.14-.13,.2-.21,.37-.51,.51-1.39,.84-2.18,.03-.08,.06-.16,.1-.24,.02-.06,.05-.12,.08-.17,0-.03,.03-.05,.04-.08-.01,0-.01,0-.02,0Zm1.81-4.49v.54q0-.36,.18-.36l-.18-.18Z"
                      fill="#e1aa14"/>
                <path d="M740.63,163.99c-1.07,0-1.61,0-1.61-1.08,.18-.18,.18-.36,.54-.54h.18c.35-.35,.89-.53,1.25-.53-1.43,0-3.05-.36-4.3-1.44h-.18q-.18-.18-.36-.18c.54-.71,1.79-1.25,1.79-2.15,0-.36,0-.54-.18-.89-5.37-6.46-12.72-8.79-20.43-10.4v.18h-.36l.18-.18c-2.51-.9-5.02-.9-7.52-1.08-4.13,.72-8.25,.9-12.37,0-1.26-.18-2.51,0-3.77,.36-5.37,.18-10.57,.54-15.77,1.26-.72,1.07-1.79,.36-2.69,.71h-.36q-.18,0-.35,.18c-.72,0-1.44-.18-2.16-.18-3.4,.18-6.81,.72-10.39,1.26-23.66,3.23-46.96,8.96-69.72,16.31-12.73,4.12-25.45,8.96-37.1,15.59,.53,2.87-1.26,1.97-2.69,1.8-1.61,.71-3.23,1.61-4.48,3.04,.36,.18,1.25,0,.89,.72-.53,1.07-1.43,2.33-3.04,1.25-4.48,3.59-7.53,8.25-9.32,13.63-.54,.89-.9,1.79-1.44,2.68-.18,.54-.18,1.26-1.07,.72-6.81-3.23-14.16-3.05-21.33-3.05-8.43-.18-17.03-.35-25.09,2.51-1.26,.54-2.16,.18-2.87-.89-2.33-8.61-7.89-14.88-15.06-19.72-10.21-6.81-21.51-11.11-32.8-15.23-26.35-9.5-53.41-15.96-81.01-19.72-10.76-1.61-21.51-2.87-32.44-2.69-.9-.18-1.8-.18-2.69-.18-3.59-.54-7.35-.36-10.93,0,2.15,.18,4.12,.18,6.27,.36-3.41,.72-6.99,1.08-10.4,0-10.03,1.44-19.53,4.3-25.63,13.44-.18,.18-.71,.18-1.07,.36v.36c.89,.54,1.25,1.26,1.79,1.97h.18v.18c.36,.36,.54,.9,.18,1.44v.18c0,.35-.18,.53-.36,.71,0-.18-.18-.18-.18-.18-1.07-.71-2.15-1.07-3.4-1.25-.54,0-1.62-.18-1.98-.54-1.43-1.79-3.22-2.51-5.19-3.05-1.26-.53-2.51-.89-3.59-1.43-.36-.18-.72-1.25-1.43-.36-.54,.54,0,1.08,.36,1.44,.35,.53,.89,.89,.89,1.43,.18,.18,.18,.36,.18,.54,2.87,2.15,6.27,2.51,9.68,3.04,1.25,.18,1.79,.36,1.79,1.97-.89,16.14,4.12,30.47,12.73,43.92,2.51,5.02,6.09,9.14,9.86,13.26,22.22,25.63,49.64,42.84,82.98,50.54,8.6,1.98,17.21,3.41,26.17,3.59,2.51-1.08,5.2-.36,7.89-.36h1.61c3.22-.18,6.45-.54,9.68,.36,12.18-.72,23.66-3.59,33.51-11.11,17.75-13.45,25.1-31.91,24.02-53.77-.18-2.69,.54-3.41,2.87-3.95,4.48-1.07,8.78-1.43,13.26-1.79,9.68-.54,19.18-.36,28.68,1.79,1.25,.36,2.87,.18,3.4,1.8,2.1-.6,3.58,1.32,5.59,1.32,.18,0,.36-.02,.55-.05,.21-.04,.43-.1,.66-.19,.06-.32,.13-.64,.2-.96,.16-.72,.51-2.2,1.18-4.16h0c-.11-.14-.2-.27-.29-.45,0,0,.18-.17,.36-.35,.07-.01,.14-.02,.2-.02h.01c1.77-4.99,5.4-12.54,12.54-19.02,5.54-5.03,10.74-7.19,25-12,18.9-6.37,28.34-9.56,42-13,13.83-3.48,24.22-5.32,45-9,2.03-.36,16.63-2.88,35-3,6.09-.04,12.88,.18,20,4,2.53,1.36,7.7,4.21,11,10,1.42,2.48,4.15,8.44,2,20-2.85,15.32-11.74,26.87-20,36-13.89,15.37-27.83,30.8-53,42-30.11,13.41-56.06,11.76-68,11-11.23-.71-19.25-2.61-27-7-12.11-6.85-18.14-16.71-20-20-2.41-4.27-9.54-17.37-6.22-33.97-.03,.05-.06,.11-.08,.17-.04,.08-.07,.16-.1,.24-.33,.79-.47,1.67-.84,2.18-.06,.08-.12,.16-.2,.21-.07,.07-.14,.12-.23,.15-.18,.08-.41,.11-.69,.06-.19-.04-.41-.1-.65-.21-.13-.05-.26-.11-.4-.19,.54-.72,1.43-1.25,2.33-1.79-2.51-.18-4.3-.9-5.92-1.97-.18,.53-.35,1.07-.53,1.43-.9,18.28,3.76,34.59,16.67,48.03,10.93,12.01,25.27,16.67,41.04,17.57,2.33-1.08,4.84-.36,7.35-.36,3.94,0,7.89-.72,11.83,.36,8.6-.18,16.85-1.61,25.27-3.59,37.46-8.42,67.39-28.49,90.15-59.14,9.86-13.09,15.6-27.78,16.14-44.27,0-1.8-.72-3.95,0-5.56,.71-1.61,3.4-.54,5.01-1.61-2.33,0-4.48,0-6.63,.18Zm-267.59,81.3c-1.86,3.27-7.89,13.04-20,19.84-7.75,4.35-15.77,6.24-27,6.94-11.94,.76-37.89,2.39-68-10.91-25.17-11.11-39.11-26.41-53-41.66-8.26-9.05-17.15-20.51-20-35.7-2.15-11.47,.58-17.38,2-19.84,3.3-5.74,8.47-8.57,11-9.92,7.12-3.79,13.91-4.01,20-3.97,18.37,.12,32.97,2.62,35,2.98,20.78,3.65,31.18,5.47,45,8.93,13.66,3.41,23.1,6.57,42,12.89,14.26,4.77,19.46,6.91,25,11.9,10.52,9.48,13.42,21.25,14,23.81,3.84,16.94-3.54,30.39-6,34.71Zm64.16-37.75c-.36,.36-.72,.54-1.07,.54h-.18c-.15,0-.3-.01-.44-.04-.4-.05-.79-.14-1.18-.14-.53-.18-1.07-.18-1.43-.54-.36-.18-.54-.36-.72-.9,.72-.71,1.8-.35,2.51-.35,.9,0,1.97,0,2.51,.71,.18,.18,.18,.72,0,.72Zm146.44-59.15l-.36-.18-.36,.18c-.36,.18-.72,.36-1.26,.54,0-.18-.17-.36-.35-.54,.35,.18,.53,.18,.71,.18,0,0,.18-.36,.36-.36h.18c.18-.35,.36-.35,.54-.35,.36,0,.72,0,.89,.17l.36,.36c.36,.18,.54,.36,.9,.72-.54-.36-1.08-.54-1.61-.72Zm29.93,0h-.36c-.18-.18,0-.53,.36-.71v.71Zm20.43,14.88c-.18-.18-.18-.54-.18-.72v-.18c0-.18,.18-.53,.54-.71,.18-.18,.54-.36,.9-.54-.54,.72-1.08,1.25-1.26,2.15Zm-198.23,53.95v-.18h.18q-.18,0-.18,.18Z"
                      fill="#e1aa14"/>
                <path d="M541.15,212.02s-.03,.05-.04,.08c-.03,.05-.06,.11-.08,.17-.04,.08-.08,.16-.1,.24-.33,.79-.47,1.67-.84,2.18-.12,.16-.26,.28-.43,.36-.18,.08-.41,.11-.69,.06-.19-.04-.41-.1-.65-.21-.13-.05-.26-.11-.4-.19,.54-.72,1.43-1.25,2.33-1.79-2.51-.18-4.3-.9-5.92-1.97,2.1-.6,3.58,1.32,5.59,1.32,.18,0,.36-.02,.55-.05,.21-.04,.43-.1,.66-.19,.01,0,.01,0,.02,0Z"
                      fill="#e1aa14"/>
                <path d="M543.12,207.72q-.18,0-.18,.36v-.72c0-.26-.09-.52-.35-.71-.1-.08-.22-.14-.37-.19,0,0,.18-.17,.36-.35,.07-.01,.14-.02,.2-.02h.01c.27-.02,.5,.02,.68,.11,.08,.03,.15,.08,.22,.14,.33,.25,.5,.7,.5,1.2,.18,.9-.71,.18-1.07,.18Z"
                      fill="#e1aa14"/>
                <path d="M548.67,186.75c-.54,1.08-1.43,2.33-3.05,1.25,.9-.54,2.33-.36,2.15-1.97,.36,.18,1.25,0,.9,.72Z"
                      fill="#e1aa14"/>
                <path d="M552.25,182.98c1.25-.18,2.15-.54,2.69-1.79,.54,2.87-1.25,1.97-2.69,1.79Z" fill="#e1aa14"/>
                <path d="M674.67,148.03q-.18,0-.36,.18c-.72,0-1.43-.18-2.15-.18,.72-.18,1.43-.18,1.97-.18,.18,0,.36,.18,.54,.18Z"
                      fill="#e1aa14"/>
                <path d="M610.68,277.98c-6.27-.18-12.73-.36-19.18,0,2.33-1.08,4.84-.36,7.35-.36,3.94,0,7.89-.72,11.83,.36Z"
                      fill="#e1aa14"/>
                <path d="M685.24,149.11c-.54-.36-1.08-.54-1.61-.72l-.36-.18-.36,.18c-.36,.18-.72,.36-1.25,.54,.18-.18,.18-.36,.36-.36,0,0,.18-.36,.36-.36h.18c.18-.36,.36-.36,.54-.36,.36,0,.72,0,.9,.18q.18,.18,.36,.36c.36,.18,.54,.36,.9,.72Z"
                      fill="#e1aa14"/>
                <path d="M717.33,146.78v.18h-.36l.18-.18h.18Z" fill="#e1aa14"/>
                <path d="M736.68,160.4h-.18q-.18-.18-.36-.18c.54-.72,1.79-1.25,1.79-2.15,.54,1.08,.36,1.79-1.25,2.33Z"
                      fill="#e1aa14"/>
                <path d="M747.26,163.8c-2.33,0-4.48,0-6.63,.18-1.08,0-1.61,0-1.61-1.08,.18-.18,.18-.36,.54-.54h.18q.18,.18,.36,.18h.18c1.25,.54,2.33,.18,3.58,.36,1.08,0,2.51-.36,3.41,.9Z"
                      fill="#e1aa14"/>
                <path d="M280.54,162.55c-1.08-.36-1.79-.72-1.79-1.97,.9,.54,1.25,1.25,1.79,1.97Z" fill="#e1aa14"/>
                <path d="M280.71,162.55v.18s-.18,0-.18-.18h.18Z" fill="#e1aa14"/>
                <path d="M280.89,164.16v.18c0,.36-.18,.54-.36,.72,0-.18-.18-.18-.18-.18-1.08-.72-2.15-1.08-3.41-1.25-.54,0-1.61-.18-1.97-.54-1.43-1.79-3.23-2.51-5.2-3.05-1.25-.54-2.51-.9-3.58-1.43-.36-.18-.72-1.25-1.43-.36-.54,.54,0,1.08,.36,1.43,.36,.54,.9,.9,.9,1.43-.9-.9-2.87-1.61-1.61-3.23,1.08-1.43,2.15,.36,3.41,.54,4.66,.54,7.89,4.66,12.55,5.56q.18,.18,.36,.18h.18Z"
                      fill="#e1aa14"/>
                <path d="M315.84,146.42c-3.41,.72-6.99,1.08-10.39,0,2.15,.18,4.12,.36,6.09,.36-.72-.18-1.25-.36-1.97-.72,2.15,.18,4.12,.18,6.27,.36Z"
                      fill="#e1aa14"/>
                <path d="M280.89,164.16v.18c0,.36-.18,.54-.36,.72,0-.18-.18-.18-.18-.18-1.08-.72-2.15-1.08-3.41-1.25-.54,0-1.61-.18-1.97-.54-1.43-1.79-3.23-2.51-5.2-3.05-1.25-.54-2.51-.9-3.58-1.43-.36-.18-.72-1.25-1.43-.36-.54,.54,0,1.08,.36,1.43,.36,.54,.9,.9,.9,1.43,.18,.18,.18,.36,.18,.54-.18-.18-.9-.36-1.08-.72-3.58-5.02-8.25-9.68-8.96-16.49,0-.72-.18-1.43,0-1.79,2.51-3.58,.36-6.99-.18-10.22-1.61-10.22-1.43-20.43-1.43-31.01,0-2.69,.18-5.56,.36-8.25,2.33-6.99,5.56-13.26,9.5-19,.54,.72,.9,1.43,1.43,2.15,1.43,3.41,3.05,6.45,4.48,10.04,.54,1.25,1.08,2.87,1.61,4.12-1.43,3.41-2.87,6.99-3.94,10.4-1.61-3.94-3.41-7.71-5.02-11.83-.36,1.25-.36,2.15-.72,3.05-2.87,9.14-3.76,18.28-2.87,27.96,.54,5.74,1.25,11.29,2.69,16.67,.18,.9,.36,1.61,.72,1.79,1.08,.54,1.79,1.25,2.33,1.97,1.79,2.51,1.61,5.56,2.51,8.24,.36,1.08,.18,2.33-.36,3.23-1.79,2.69-.18,4.3,1.61,5.2,0,.18,.18,.18,.18,.18,3.05,1.61,6.45,1.97,9.5,2.87l.18,.18v.18c.9,.54,1.25,1.25,1.79,1.97h.18v.18c.36,.36,.54,.9,.18,1.43Z"
                      fill="#e1aa14"/>
                <path d="M761.24,93.73c-1.61-.18-4.3,2.33-4.84-1.62,0-1.07,0-2.15-.71-3.04,1.25,1.25,1.07,2.86,1.43,4.12,.54,.72,.9,0,1.26-.18,1.43-.72,3.4,1.08,3.94-.9,.54-1.25-.54-2.86-.72-4.48-.36-4.66-2.33-9.14-3.22-13.62,2.86,5.2,3.4,10.93,4.48,16.67,.36,1.61,.54,3.23-1.62,3.05Z"
                      fill="#e1aa14"/>
                <path d="M762.5,141.22c1.61,2.33-.54,10.76-2.87,12.55-.72,.54-1.61,1.08-1.79,1.97-1.61,5.38-5.74,7.35-10.58,8.07-2.33,0-4.48,0-6.63,.18-1.07,0-1.61,0-1.61-1.08,.18-.18,.18-.36,.54-.54h.18c.35-.35,.89-.53,1.25-.53-1.43,0-3.05-.36-4.3-1.44h-.18q-.18-.18-.36-.18c.54-.71,1.79-1.25,1.79-2.15,0-.36,0-.54-.18-.89,1.44,.53,1.26,3.22,3.59,2.86,3.76-.89,7.88-1.07,10.75-3.94,.72-.72,1.44-1.97,.72-3.41-1.97-3.94-.36-10.93,3.05-13.62,1.25-.89,1.25-2.15,1.61-3.22,2.15-10.58,2.51-21.33,1.61-32.27-.18-3.94-3.04-7.16-3.04-11.29,0-1.07-.18-2.15-.36-3.22,1.25,1.25,1.07,2.86,1.43,4.12,.54,.72,.9,0,1.26-.18,1.43-.72,3.4,1.08,3.94-.9,.54-1.25-.54-2.86-.72-4.48-.36-4.66-2.33-9.14-3.22-13.62,3.76,3.94,4.3,9.32,4.66,14.16,1.43,16.31,2.51,32.62-.9,48.93-.36,1.44-.36,2.69,.36,4.12Z"
                      fill="#e1aa14"/>
                <path d="M537.2,206.82c.18,.18,.18,.72,0,.72-.36,.36-.72,.54-1.08,.54h-.18c-.54,0-1.08-.18-1.61-.18-.54-.18-1.08-.18-1.43-.54-.36-.18-.54-.36-.72-.9,.72-.72,1.79-.36,2.51-.36,.9,0,1.97,0,2.51,.72Z"
                      fill="#e1aa14"/>
                <path d="M685.24,149.11c-.54-.36-1.08-.54-1.61-.72l-.36-.18-.36,.18c-.36,0-.54,.18-.9,.18,0,0,.18-.36,.36-.36h.18c.18-.36,.36-.36,.54-.36,.36,0,.72,0,.9,.18q.18,.18,.36,.36c.36,.18,.54,.36,.9,.72Z"
                      fill="#e1aa14"/>
                <path d="M709.62,145.7c-4.12,.72-8.25,.9-12.37,0,4.12,.36,8.24,.36,12.37,0Z" fill="#e1aa14"/>
                <path d="M713.21,148.39c-.18-.18,0-.54,.36-.72v.72h-.36Z" fill="#e1aa14"/>
                <path d="M717.33,146.78v.18h-.36l.18-.18h.18Z" fill="#e1aa14"/>
                <path d="M682.91,148.39c-.36,.18-.72,.36-1.25,.54,0-.18-.18-.36-.36-.54,.36,.18,.54,.18,.72,.18,0,0,.18-.36,.36-.36h.18s.36,0,.36,.18Z"
                      fill="#e1aa14"/>
                <path d="M428.58,277.98c-6.45,.54-12.91,.54-19.18,0,2.51-1.08,5.2-.36,7.89-.36h1.61c3.23-.18,6.45-.54,9.68,.36Z"
                      fill="#e1aa14"/>
                <path d="M610.68,277.98c-6.27-.18-12.73-.36-19.18,0,2.33-1.08,4.84-.36,7.35-.36,3.94,0,7.89-.72,11.83,.36Z"
                      fill="#e1aa14"/>
                <path d="M709.62,145.7c-4.12,.72-8.25,.9-12.37,0,4.12,.36,8.24,.36,12.37,0Z" fill="#e1aa14"/>
                <path d="M315.84,146.42c-3.41,.72-6.99,1.08-10.39,0,1.43-.18,2.69-.18,4.12-.36,2.15,.18,4.12,.18,6.27,.36Z"
                      fill="#e1aa14"/>
                <path d="M548.67,186.75c-.54,1.08-1.43,2.33-3.05,1.25,.72-.72,1.43-1.25,2.15-1.97,.36,.18,1.25,0,.9,.72Z"
                      fill="#e1aa14"/>
                <path d="M677.72,147.32c-.72,1.08-1.79,.36-2.69,.72h-.36q-.18,0-.36,.18c-.72,0-1.43-.18-2.15-.18,1.79-.72,3.76-.54,5.56-.72Z"
                      fill="#e1aa14"/>
                <path d="M552.25,182.98c.9-.54,1.79-1.25,2.69-1.79,.54,2.87-1.25,1.97-2.69,1.79Z" fill="#e1aa14"/>
                <path d="M543.12,207.72q-.18,0-.18,.36v-.72c0-.26-.09-.52-.35-.71-.1-.08-.22-.14-.37-.19,0,0,.18-.17,.36-.35,.07-.01,.14-.02,.2-.02h.01c.27-.02,.5,.02,.68,.11,.08,.03,.15,.08,.22,.14,.33,.25,.5,.7,.5,1.2,.18,.9-.71,.18-1.07,.18Z"
                      fill="#e1aa14"/>
                <path d="M685.24,149.11c-.54-.36-1.08-.54-1.61-.72h.72c.36,.18,.54,.36,.9,.72Z" fill="#e1aa14"/>
                <path d="M713.56,147.67v.72h-.36c-.18-.18,0-.54,.36-.72Z" fill="#e1aa14"/>
                <path d="M734.35,161.65c.18-.18,.54-.36,.9-.54-.54,.72-1.08,1.25-1.25,2.15-.18-.18-.18-.54-.18-.72v-.18c0-.18,.18-.54,.54-.72Z"
                      fill="#e1aa14"/>
                <path d="M750.31,160.4c-1.97,2.51-3.76,2.33-5.56,2.15-1.61,0-3.05-.36-4.48,0h-.18c-.36,0-.54,.18-1.08,.36,.18-.18,.18-.36,.54-.54h.18c.36-.36,.9-.54,1.25-.54-1.43,0-3.05-.36-4.3-1.43,4.12,.9,8.42,1.25,13.62,0Z"
                      fill="#e1aa14"/>
                <path d="M735.25,161.12c-.54,.72-1.08,1.25-1.25,2.15-.18-.18-.18-.54-.18-.72v-.18c0-.18,.18-.54,.54-.72,.18-.18,.54-.36,.9-.54Z"
                      fill="#e1aa14"/>
                <path d="M280.89,164.16v.18c0,.36-.18,.54-.36,.72,0-.18-.18-.18-.18-.18,0-.36,.18-.54,0-.9,.18-.54,.18-1.08,.18-1.43h.18v.18c.36,.36,.54,.9,.18,1.43Z"
                      fill="#e1aa14"/>
                <path d="M537.2,206.82c.18,.18,.18,.72,0,.72-.36,.36-.72,.54-1.08,.54h-.18c-.54,0-1.08-.18-1.61-.18-.54-.18-1.08-.18-1.43-.54-.36-.18-.54-.36-.72-.9,.72-.72,1.79-.36,2.51-.36,.9,0,1.97,0,2.51,.72Z"
                      fill="#e1aa14"/>
                <path d="M713.56,147.67v.72h-.36c-.18-.18,0-.54,.36-.72Z" fill="#e1aa14"/>
            </g>
            <g>
                <path d="M136.59,74.52c-.85-16.74-1.87-37.07-1.35-52.28l-.71,.03c-5.67,14.54-12.53,30.45-20.77,49.04-9.62,21.79-19.18,44.73-28.67,68.93-5.1,1.41-10.2,2.85-15.29,4.32-8.17-19.49-16.4-40.01-24.7-61.66-7.31-19.23-13.52-37.82-17.9-55.44l-.47,.03c-.55,18.79-1.82,44.17-3.3,67.15-1.48,21.91-2.94,44.01-4.38,66.29-6.36,2.06-12.7,4.15-19.04,6.29C3.59,113.09,7.28,60.13,11.05,8.3c8.7-.14,17.41-.28,26.11-.41,8.88,23.65,17.67,46.04,26.39,67.27,6.36,16.26,11.54,30.2,15.33,43.36,.23-.05,.46-.11,.7-.16,4.12-14.58,9.9-30.44,17.15-47.94,9.66-22.42,19.38-43.64,29.15-63.78,8.71-.11,17.42-.22,26.13-.32,2.49,39.33,4.96,77.93,7.4,115.83-6.63,1.53-13.25,3.09-19.87,4.7-.98-17.3-1.96-34.74-2.95-52.31Z"
                      fill="#e1aa14"/>
                <path d="M295.74,63.26c-.64,24.06-30.31,39.08-57.9,44.43-30.89,5.99-54.19-4.43-53.61-30.03,.62-27.09,25.92-44.29,57.49-45.65,32.74-1.49,54.55,11.34,54.02,31.25Zm-90.58,11.03c-.41,16.98,13.6,26.92,33.88,23.38,19.81-3.43,35.01-16.67,35.42-31.89,.31-11.44-8.97-25.47-33.48-23.92-24.5,1.56-35.46,17.73-35.83,32.42Z"
                      fill="#e1aa14"/>
                <path d="M329.18,29.41c7.17,11.5,14.37,22.66,21.59,33.53,3.65,5.26,6.62,10.01,8.87,14.79,.24-.02,.47-.04,.71-.07,2.73-5.23,6.17-10.48,10.09-16.18,7.69-11.71,15.35-23.11,22.98-34.24,7.25-.2,14.49-.38,21.74-.55-15.32,19.4-30.76,39.62-46.28,61.06-6.66,.66-13.31,1.37-19.97,2.11-14.07-18.79-28.03-38.5-41.93-59.52,7.39-.33,14.79-.64,22.19-.93Z"
                      fill="#e1aa14"/>
                <path d="M458.15,10.31c.19,3.43-5.04,6.22-13.3,6.32-7.32,.09-12.47-2.64-12.41-6.14,.06-3.62,5.53-6.43,13.07-6.44,7.77-.02,12.69,2.72,12.65,6.27Zm-24.27,72.24c.3-18.76,.6-37.52,.9-56.27,6.93-.13,13.87-.26,20.81-.36l-.72,55.5c-7,.34-13.99,.71-20.98,1.14Z"
                      fill="#e1aa14"/>
                <path d="M501.54,54.42c.39,13.39,18.48,18.51,39.47,18.59,15.02,.06,24.08-1,31.93-2.43,1.21,2.39,2.41,4.78,3.62,7.17-7.38,1.41-20.03,2.91-38.41,2.86-35.6,.01-56.74-10.11-56.57-26.74,.17-16.57,20.62-29.83,53.94-29.8,37.34,0,47.41,15.91,47.5,25.96,.02,2.03-.45,3.6-.68,4.62-26.93-.52-53.88-.6-80.81-.22Zm61.29-7.15c.2-6.28-5.53-16.14-28.96-16.15-21.06,0-30.35,9.33-32.05,16.21,20.34-.24,40.68-.26,61.01-.06Z"
                      fill="#e1aa14"/>
                <path d="M609.05,4.12c6.83,.02,13.67,.03,20.5,.05,.35,23.2,.7,46.4,1.06,69.59,22.86,1.17,45.7,2.77,68.51,4.78l.21,9c-29.73-2.92-59.52-5.05-89.33-6.38-.31-25.68-.63-51.36-.94-77.04Z"
                      fill="#e1aa14"/>
                <path d="M821.13,68.11c.71,26.65-28.25,32.76-55.99,28.69-31.06-4.57-55.38-18.96-55.81-37.88-.46-20,24.29-31.11,55.89-29.97,32.79,1.11,55.33,17.14,55.92,39.16Zm-90.74-8.01c.33,13.49,15.08,25.24,35.45,27.96,19.9,2.69,34.48-6.24,34.06-21.85-.32-11.71-10.38-27.19-34.93-28.41-24.55-1.22-34.88,10.6-34.58,22.29Z"
                      fill="#e1aa14"/>
                <path d="M950.08,86.16c.55,33.8-28.07,40.53-55.5,34.13-30.71-7.19-54.92-26.04-55.52-48.87-.64-24.13,23.96-37.18,55.47-35.42,32.7,1.75,55.09,22.24,55.54,50.16Zm-90.07-12.55c.42,16.48,15.09,31.58,35.26,35.85,19.69,4.2,34.13-6.53,33.76-26.19-.28-14.76-10.26-34.38-34.71-36.27-24.45-1.9-34.67,12.32-34.31,26.61Z"
                      fill="#e1aa14"/>
                <path d="M996.26,91.06c.16,.03,.31,.06,.47,.08,2.76-2.95,6.67-6.58,9.9-9.59,10.92-9.77,21.88-20.24,32.88-31.48,8.26,.82,16.52,1.66,24.77,2.51-14.54,13.92-28.99,26.57-43.38,38.12,16.68,23.25,33.19,48.65,49.45,76.5-8.17-2.75-16.36-5.44-24.56-8.07-12.87-21.43-25.88-41.36-38.99-59.95-3.46,2.77-6.91,5.48-10.36,8.13,.14,12.33,.28,24.66,.42,36.99-6.72-1.92-13.44-3.81-20.18-5.65-.65-46.22-1.3-92.44-1.95-138.66h20.49c.34,30.35,.69,60.7,1.03,91.06Z"
                      fill="#e1aa14"/>
            </g>
            <path d="M541.13,212.03s.01,0,.02,0c-.01,.03-.03,.05-.04,.08,0-.02,0-.04,.02-.07Z" fill="#fff"/>
            <path d="M543.12,207.72q-.18,0-.18,.36v-.72c-.18-.18-.31-.31-.43-.45,0,0-.01,0,0-.01,.02-.08,.05-.16,.08-.25,.06-.18,.13-.37,.19-.56h.01c.27-.02,.5,.02,.68,.11,.08,.03,.15,.08,.22,.14,.33,.25,.5,.7,.5,1.2,.18,.9-.71,.18-1.07,.18Z"
                  fill="#fff"/>
        </g>
</svg>