<svg xmlns="http://www.w3.org/2000/svg" viewBox="0 0 53.69 37">
    <path d="M52.51,6c0-1.45,0-2.9-.02-4.35-.02-.92-.44-1.41-1.33-1.56-.37-.06-.75-.1-1.13-.1C34.59,0,19.14,0,3.69,.02c-.48,0-.96,.1-1.43,.18-.54,.09-.87,.44-.95,.96-.08,.59-.13,1.18-.13,1.78-.01,3.49,0,6.99,0,10.48,0,5.41-.02,10.82-.02,16.23,0,.84,0,1.68,.02,2.52,.02,.59,.03,.59,.62,.59,8.34,0,25.01,0,25.01,.02h24.54c.78,0,1.17-.4,1.17-1.19,0-8.53,0-17.06,0-25.59h0ZM26.91,.65c.27,0,.49,.22,.49,.48s-.22,.48-.49,.48-.49-.22-.49-.48,.22-.48,.49-.48Zm23.85,30.23c-.16,.01-46.83,.02-47.46,.05-.37,.02-.46-.11-.46-.46,0-3.9,0-7.79,0-11.69,0-5.4,0-10.79-.02-16.19,0-.38,.18-.38,.45-.38,7.79,.01,15.58,.02,23.36,.03,7.85,0,15.71,0,23.56,.01h.56V30.88h0Z"
          fill="#e7342f"/>
    <path d="M0,34.22c0,.15,.01,.25,.02,.35,.15,1.4,.75,2.09,2.05,2.33,.37,.07,.76,.09,1.13,.09,15.72,0,31.44,0,47.16,0,.37,0,.73-.03,1.1-.07,1.12-.12,1.78-.68,2.05-1.73,.08-.31,.12-.63,.18-.98H0Zm35.01,1.91H18.65v-.8h16.36v.8Z"
          fill="#e7342f"/>
    <path d="M38.36,19.41c-.39-.38-.94-.36-1.34,.04-.09,.09-.21,.22-.31,.22-1.09,.01-2.19,.01-3.29,.01v-1.71c.43,0,.83-.02,1.22,.01,.17,.02,.36,.11,.48,.23,.39,.38,.94,.42,1.31,.07,.37-.35,.37-.94,0-1.29-.38-.35-.92-.31-1.3,.09-.09,.09-.2,.22-.31,.22-.47,.03-.94,.01-1.41,.01v-1.71c.41,0,.79-.03,1.16,.01,.2,.02,.43,.11,.57,.24,.4,.36,.93,.4,1.31,.04,.34-.33,.34-.93-.01-1.26-.38-.36-.91-.34-1.3,.06-.09,.09-.2,.22-.31,.22-.47,.03-.94,.01-1.42,.01v-1.71c.4,0,.78-.03,1.16,.01,.2,.02,.43,.11,.57,.24,.4,.37,.94,.41,1.31,.06,.36-.34,.36-.91,.01-1.26-.36-.36-.93-.34-1.31,.04-.09,.09-.19,.24-.29,.24-.48,.03-.96,.01-1.46,.01-.06-.79,.13-1.56-.48-2.16-.62-.6-1.42-.4-2.16-.47,0-.16-.02-.26-.02-.37,0-.32-.02-.63,.01-.95,.01-.13,.1-.27,.2-.36,.43-.41,.47-.93,.1-1.32-.35-.36-.92-.37-1.27-.02-.38,.37-.35,.93,.07,1.32,.08,.08,.21,.17,.21,.26,.02,.47,.01,.95,.01,1.42h-1.69c-.02-.08-.03-.12-.03-.16,0-.35-.03-.7,0-1.04,.02-.17,.11-.36,.23-.48,.4-.41,.43-.94,.04-1.33-.35-.34-.93-.32-1.27,.04-.35,.37-.31,.92,.09,1.29,.09,.09,.23,.2,.23,.3,.03,.46,.01,.93,.01,1.39h-1.73c0-.98,0-1.92,0-2.87,0-.28,.04-.49,.28-.7,.37-.32,.35-.87,.02-1.22-.31-.33-.84-.37-1.2-.09-.38,.29-.51,.9-.16,1.2,.41,.35,.36,.75,.36,1.17,0,.69,0,1.39,0,2.08,0,.14-.02,.29-.03,.42h-1.71c0-.41-.03-.79,.01-1.16,.02-.18,.11-.39,.24-.52,.38-.38,.42-.93,.07-1.29-.35-.36-.92-.37-1.27-.03-.37,.37-.36,.91,.02,1.29,.09,.09,.24,.19,.25,.3,.03,.48,.01,.95,.01,1.44-.8,.04-1.57-.12-2.18,.48-.62,.61-.41,1.4-.48,2.1-.09,.02-.12,.04-.14,.04-.92,0-1.83,0-2.75,.01-.28,0-.5-.03-.71-.28-.33-.39-.91-.37-1.26-.02-.36,.35-.36,.92,0,1.26,.36,.34,.94,.35,1.27-.04,.2-.23,.39-.28,.67-.28,.63,.01,1.25,0,1.88,0h1.04v1.71c-.44,0-.85,.02-1.26-.01-.16-.01-.34-.1-.45-.21-.41-.41-.95-.44-1.34-.05-.35,.35-.34,.93,.03,1.26,.41,.37,.93,.33,1.33-.1,.08-.08,.18-.19,.28-.19,.46-.02,.93-.01,1.41-.01v1.71c-.35,0-.66,0-.98,0-.33,0-.59-.02-.83-.32-.3-.37-.89-.32-1.23,.02-.34,.34-.35,.89-.02,1.22,.36,.37,.89,.38,1.27,.04,.12-.11,.24-.27,.37-.28,.46-.04,.94-.01,1.41-.01v1.65c-.05,.02-.08,.05-.1,.05-.37,0-.74,.03-1.1,0-.17-.01-.37-.1-.49-.22-.41-.4-.95-.44-1.34-.07-.36,.34-.35,.91,0,1.26,.38,.37,.94,.33,1.33-.08,.09-.09,.21-.2,.32-.21,.45-.02,.91-.01,1.39-.01,.07,.77-.13,1.54,.47,2.14,.61,.62,1.42,.42,2.19,.49,0,.37-.01,.69,0,1.02,.02,.31-.03,.55-.31,.78-.37,.31-.33,.89,0,1.21,.36,.35,.93,.35,1.28,0,.35-.35,.34-.91-.02-1.26-.09-.09-.26-.18-.27-.28-.03-.49-.01-.98-.01-1.46h1.69c.01,.08,.03,.13,.03,.17,0,.35,.03,.7,0,1.04-.02,.17-.11,.36-.23,.48-.39,.4-.43,.93-.06,1.29,.35,.35,.92,.36,1.28,.02,.38-.37,.35-.94-.06-1.32-.08-.08-.21-.17-.21-.26-.02-.47-.01-.95-.01-1.42h1.73c0,.91,0,1.78,0,2.65,0,.33-.02,.59-.32,.83-.37,.3-.33,.88,0,1.22,.33,.34,.89,.35,1.24,.03,.36-.33,.44-.9,.07-1.2-.35-.28-.33-.6-.33-.96,0-.85,0-1.71,0-2.58h1.73c0,.44,.02,.85-.01,1.25-.01,.15-.1,.33-.22,.44-.41,.4-.45,.94-.07,1.33,.33,.34,.93,.34,1.28,0,.37-.37,.32-.94-.09-1.32-.09-.08-.2-.2-.2-.31-.02-.45-.01-.9-.01-1.38,.77-.07,1.57,.14,2.19-.49,.62-.62,.37-1.41,.48-2.14,1.12,0,2.19,0,3.25,.01,.12,0,.26,.12,.35,.22,.38,.39,.94,.43,1.31,.08,.37-.35,.39-.91,.04-1.25h.03Zm-2.54-2.27c.19,0,.37,.28,.31,.51,0,0,0,.02,0,.03v.03c-.06,.13-.19,.26-.33,.25-.01,0-.03,0-.05-.01-.1-.03-.17-.12-.21-.21-.02-.03-.03-.06-.03-.08-.05-.24,.13-.51,.31-.51Zm-.31-1.89s0-.04,.02-.07h0c.04-.1,.11-.2,.22-.23,.02-.01,.03-.01,.05-.01,.15-.01,.28,.13,.33,.26v.02l.02,.03c.05,.23-.13,.51-.32,.51-.19,0-.36-.28-.31-.51h0Zm.21-2.64h.01s.05-.04,.07-.04c.2-.06,.51,.1,.52,.29,0,.16-.23,.33-.45,.32h-.02c-.18-.02-.37-.15-.37-.3,0-.15,.21-.26,.23-.27h0Zm-19.75,.58s-.02,0-.02,0c-.16-.03-.35-.16-.33-.33,.01-.14,.16-.24,.29-.27h0s.03-.01,.04-.01h0c.23-.03,.5,.15,.49,.33-.01,.17-.25,.31-.46,.28h0Zm1.83,2.58c-.18,.01-.37-.26-.34-.49,0-.02,0-.05,.02-.08,.03-.1,.1-.2,.2-.24,.02,0,.03-.01,.04,0,.15-.02,.28,.11,.34,.24h0s.02,.03,.02,.05c.07,.23-.09,.52-.27,.53h0Zm-.05,2.19s-.03-.01-.05-.02c-.13-.05-.26-.18-.24-.33,0,0,0-.02,0-.03,0,0,0-.01,0-.01,.03-.1,.12-.17,.21-.21,.03-.02,.06-.03,.08-.03,.24-.04,.52,.15,.51,.33,0,.18-.3,.35-.53,.29h0Zm.45,2.11c-.02,.15-.22,.29-.47,.26,0,0-.01,0-.02,0-.15-.03-.25-.16-.25-.3h0c0-.16,.12-.25,.24-.29,.02-.01,.04-.01,.06-.01,.22-.03,.46,.17,.44,.35h0ZM30.1,7.56c.01-.15,.12-.34,.29-.35,.01,0,.02,0,.04,0h0c.11,.02,.2,.11,.24,.2,.01,.02,.02,.04,.02,.06h0c.08,.23-.06,.52-.24,.54-.17,.02-.37-.21-.36-.43v-.02h0Zm-2.11-.53c.17,0,.35,.23,.32,.45v.02c-.02,.15-.15,.33-.33,.32-.01,0-.03,0-.05,0-.1-.03-.18-.12-.22-.21-.02-.03-.03-.05-.03-.08-.05-.22,.11-.5,.3-.5h0Zm-2.71-1.38c.03-.07,.13-.17,.22-.21,.03-.02,.05-.02,.08-.02,.24-.05,.52,.12,.52,.3s-.28,.36-.52,.31c-.01,0-.02,0-.03,0,0,0-.01,0-.02,0-.13-.05-.28-.17-.26-.32,0-.01,0-.03,0-.04h0Zm-2.4,1.84s.01-.05,.03-.07c.05-.09,.13-.18,.24-.2,.02,0,.03,0,.04,0,.17,0,.29,.19,.31,.34h0c.02,.23-.16,.46-.33,.45-.18-.01-.34-.3-.28-.52h0Zm.8,17.88c0,.16-.23,.32-.45,.31h-.02c-.18-.02-.36-.16-.36-.31,0-.15,.21-.26,.23-.27,.03-.02,.05-.04,.08-.04,.2-.05,.51,.11,.51,.3h0Zm2.42,0c0,.18-.28,.36-.51,.32-.03,0-.05-.01-.08-.03h0c-.1-.04-.19-.11-.22-.21h0s0-.04,0-.05c-.01-.15,.12-.27,.25-.32,.02-.01,.04-.01,.05-.02,.23-.05,.51,.12,.51,.31h0Zm2.41,1.73c-.01,.18-.31,.33-.53,.27-.02,0-.03,0-.04-.01-.14-.05-.27-.18-.25-.3,.02-.12,.17-.2,.26-.24,.03-.02,.06-.03,.08-.04,0,0,.02,0,.02,0,.19-.04,.47,.15,.46,.33Zm2.21-1.69s0,.03-.01,.04h0c-.05,.12-.16,.23-.3,.22h0c-.14-.01-.24-.13-.28-.25,0-.02-.01-.04-.01-.05-.02-.21,.18-.44,.36-.42,.17,.02,.3,.26,.25,.46h0Zm1.38-4.33c0,.57-.03,.59-.59,.59h-9.38c-.61,0-.63-.03-.63-.6v-4.61c0-1.57,0-3.14,0-4.71,0-.4,.12-.56,.55-.56,3.16,.01,6.31,.01,9.47,0,.43,0,.59,.13,.59,.57-.02,3.11,0,6.21,0,9.32h0Zm5.61-.76s-.05-.01-.08-.02h0c-.09-.04-.18-.11-.21-.21,0-.02-.01-.04,0-.05-.01-.15,.13-.27,.26-.31h.05c.24-.07,.53,.12,.53,.3,0,.18-.3,.35-.54,.3h0Z"
          fill="#e7342f"/>
    <path d="M31.04,12.28h-8.47v8.35h8.47V12.28Z" fill="#e7342f"/>
</svg>