<svg xmlns="http://www.w3.org/2000/svg" viewBox="0 0 194.66 32.75">
    <path d="M0,2.79C.63.92,2.1.48,3.9.48H43.22a26.53,26.53,0,0,1,2.67.14,2.84,2.84,0,0,1,2.72,3,2.76,2.76,0,0,1-2.7,2.84,20.35,20.35,0,0,1-2.07.09H3.92C2.26,6.51.82,6.07,0,4.48Z"
          fill="#00d6f2"/>
    <path d="M0,16.26C.63,14.39,2.1,14,3.9,14Q24,14,44.18,14a13.78,13.78,0,0,1,1.82.1,2.82,2.82,0,0,1,2.61,3,2.8,2.8,0,0,1-2.7,2.86,7.87,7.87,0,0,1-1,0c-13.67,0-27.34,0-41,0A4,4,0,0,1,0,18Z"
          fill="#5d5d5d"/>
    <path d="M0,29c.63-1.87,2.1-2.32,3.9-2.32q20,0,40,0c.48,0,1,0,1.45.05,2,.13,3,1,3.21,2.76s-.78,2.73-2.78,3.14a3.91,3.91,0,0,1-1.32.08H3.55a11.8,11.8,0,0,1-1.33,0,2.38,2.38,0,0,1-2.22-2Z"
          fill="#00d6f2"/>
    <path d="M103.84,5.2V6.37c0,8.33,0,16.67,0,25,0,.87-.18,1.25-1.13,1.15-1.16-.12-2.67.47-3.42-.21S99,30,99,28.86c0-9.17,0-18.35,0-27.53,0-.94.22-1.25,1.2-1.21a48.86,48.86,0,0,0,5,0,1.82,1.82,0,0,1,1.76,1q8.53,12.3,17.1,24.56c.32.45.65.9,1,1.46,3-4.41,6-8.71,9-13s6.06-8.71,9-13.1a1.73,1.73,0,0,1,1.69-.85c1.66.06,3.33.07,5,0,.95,0,1.23.22,1.22,1.18,0,7.21,0,14.43,0,21.65,0,2.84,0,5.69,0,8.53,0,.77-.21,1.1-1,1a16,16,0,0,0-2.68,0c-1,.09-1.12-.31-1.12-1.16,0-7.74,0-15.48,0-23.21V4.82c-.44.61-.71,1-1,1.34L127.54,31.51c-1,1.47-4,1.48-5.05,0L104.85,6.18l-.77-1Z"
          fill="#00d6f2"/>
    <path d="M176.46,32.51c-5.61,0-11.21,0-16.81,0-1,0-1.32-.3-1.28-1.28.1-2.08,0-4.16.12-6.25.37-5.13,3.73-6.73,7.43-7.3,5.75-.89,11.56-.9,17.34-1.45,1.45-.14,2.9-.3,4.34-.51a3.5,3.5,0,0,0,2.64-2.83,17.84,17.84,0,0,0-.08-6.1c-.28-1.9-2.06-3.19-4.4-3.29q-9.18-.39-18.38,0c-2.81.13-4.39,1.88-4.62,5a17.81,17.81,0,0,0,0,2.53c0,.71-.24.92-.91.85a10.07,10.07,0,0,0-1.1,0c-2.25,0-2.28,0-2.28-2.31a20,20,0,0,1,.2-3c.52-3.22,2.38-5.07,5.63-5.82a33.72,33.72,0,0,1,6.17-.56c5.28-.19,10.56,0,15.83.15A14.4,14.4,0,0,1,189,.76a6.45,6.45,0,0,1,5.12,5.32,20.08,20.08,0,0,1,.23,7.76c-.56,3.38-2.88,5.41-6.66,5.73-6.26.52-12.53,1-18.8,1.51a18.59,18.59,0,0,0-4.18.73A3,3,0,0,0,162.26,25c0,.88.05,1.77,0,2.64-.09,1.06.23,1.42,1.39,1.41,9.78-.05,19.56,0,29.35,0,1.89,0,1.62-.23,1.64,1.57,0,2,0,2-2,2Z"
          fill="#5d5d5d"/>
    <path d="M73.72,0c3.8.07,8.43-.13,13,.11,3.68.2,5.94,2,6.63,5.52a21.58,21.58,0,0,1-.23,9.19c-.75,3.16-2.94,4.69-6.72,5-2.68.24-5.36.12-8,.14-5,0-10,0-15,0-1.54,0-1.54,0-1.54,1.57,0,3.29,0,6.58,0,9.86,0,.82-.19,1.17-1.07,1.09a19.88,19.88,0,0,0-2.56,0c-.65,0-.82-.23-.81-.84,0-4.89,0-9.78,0-14.67,0-.94.47-.91,1.12-.91h22.9a18.79,18.79,0,0,0,4.36-.34,3.46,3.46,0,0,0,2.83-2.92,14.73,14.73,0,0,0-.13-5.73C88.16,5,86.93,4.06,84.58,4,81.26,4,77.93,4,74.6,4c-5.32,0-10.64,0-16,0-1,0-1.21-.28-1.19-1.21C57.5,0,57.46,0,60.22,0Z"
          fill="#00d6f2"/>
</svg>