<svg xmlns="http://www.w3.org/2000/svg" viewBox="0 0 292.56 413.03"><g id="Calque_2" data-name="Calque 2"><g id="Calque_1-2" data-name="Calque 1"><g id="CSS"><path d="M0,82.46V81.24a1.83,1.83,0,0,1,1.26-.36H289.53c3.08,0,3.12,0,3,3-.13,3.25-.56,6.47-.82,9.71-.41,5.19-.93,10.36-1.37,15.54-.43,4.94-.88,9.87-1.32,14.81l-1.35,14.93c-.46,5.1-.89,10.2-1.36,15.3-.46,4.93-.86,9.87-1.32,14.81s-.9,10.11-1.36,15.17-.88,9.87-1.32,14.81-.93,10.11-1.35,15.17-.93,10.2-1.36,15.3c-.41,4.9-.86,9.8-1.3,14.69-.47,5.06-.89,10.12-1.36,15.18-.56,5.94-1.07,11.89-1.6,17.84-.46,5.1-.92,10.2-1.35,15.3-.39,4.74-.86,9.47-1.28,14.2-.45,5.14-.92,10.28-1.37,15.42-.37,4.13-.77,8.25-1.12,12.38-.42,5-.89,9.95-1.32,14.93l-1.38,15.42c-.36,4.05-.74,8.09-1.07,12.14,0,.16,0,0,0,.12-.17,3-.16,3-3.06,3.8l-64.62,17.92c-16.41,4.56-32.83,9.08-49.22,13.69a11.57,11.57,0,0,1-6.47.13q-30.51-8.56-61.08-17L29.25,381c-3.11-.86-3.05-.88-3.3-4.14-.38-5.07-.91-10.12-1.34-15.18s-.94-10.19-1.35-15.3c-.31-3.88-.71-7.77-1.05-11.65q-.66-7.65-1.36-15.3c-.46-5.09-.89-10.2-1.37-15.29s-.87-9.88-1.31-14.81-.94-10.12-1.36-15.18-.93-10.19-1.35-15.3c-.31-3.88-.71-7.76-1-11.65C14,242,13.5,236.9,13,231.76q-.79-8.91-1.59-17.84c-.46-5.1-.92-10.2-1.35-15.3-.33-3.93-.72-7.85-1.06-11.77-.44-5.14-.92-10.28-1.37-15.42s-.91-10-1.35-15.05-.87-10-1.33-14.94-.91-10.11-1.35-15.17-.91-10.2-1.35-15.3c-.34-4-.76-8-1.08-12C.87,94.67.32,90.4.22,86.09A19.19,19.19,0,0,0,0,82.46Z" fill="#144deb"/><path d="M166.33,0c0,5.08,0,10.16.06,15.25,0,1-.5.87-1.11.87q-11.72,0-23.42,0c-.42,0-1.14-.33-1.23.32a5.38,5.38,0,0,0,.09,2.76c.12.29.68.12,1,.12,7.8,0,15.61,0,23.41,0,.94,0,1.22.2,1.22,1.19q-.06,17.44,0,34.89c0,.81-.15,1.09-1,1.09q-21.09,0-42.19,0c-.92,0-1.16-.25-1.15-1.16,0-4.92,0-9.84,0-14.76,0-.86.24-1.07,1.08-1.06,7.85,0,15.69,0,23.54,0,1,0,1.27-.28,1.23-1.27-.08-2,0-2-2-2-7.56,0-15.12,0-22.68,0-1,0-1.19-.3-1.19-1.23q0-16.89,0-33.79c0-.44,0-.89-.08-1.33Z"/><path d="M219.5,0c0,5.16,0,10.32.09,15.48,0,1-.66.63-1.09.63-7.68,0-15.36,0-23,0-.53,0-1.4-.33-1.55.21a7.41,7.41,0,0,0,0,2.78c.05.4.63.2,1,.2,4.63,0,9.26,0,13.89,0,3.3,0,6.59,0,9.88,0,.72,0,1,.16,1,.94q0,17.67,0,35.36c0,.74-.28.85-.92.85q-21.21,0-42.42,0c-.81,0-1-.24-1-1,0-4.92,0-9.84,0-14.76,0-.92.2-1.21,1.18-1.2,7.8,0,15.6,0,23.4,0,1,0,1.28-.27,1.24-1.26-.09-2,0-2-2-2-7.56,0-15.11,0-22.67,0-.73,0-1.17,0-1.17-1,0-11.59,0-23.17,0-34.76a4.22,4.22,0,0,1,.09-.59Z"/><path d="M113.16,0c0,5.81,0,11.63,0,17.44,0,.9-.2,1.14-1.12,1.13-7.84,0-15.69,0-23.53,0-.92,0-1.23.17-1.22,1.17.06,5.45.05,10.9,0,16.34,0,.85.21,1.08,1.07,1.08,7.88,0,15.76,0,23.65,0,.89,0,1.15.17,1.14,1.11q-.07,8.18,0,16.34c0,.88-.17,1.15-1.11,1.14q-21.09,0-42.18,0c-1,0-1.11-.28-1.11-1.15q0-26.6,0-53.18c0-.45,0-.89,0-1.34Z"/><path d="M146.33,142.2c0-11.67,0-23.34,0-35,0-1.17.21-1.58,1.51-1.58q58.27.06,116.56,0c.92,0,1.39,0,1.26,1.23-.5,4.54-.86,9.08-1.25,13.63-.27,3.14-.47,6.28-.75,9.42s-.7,6.17-.92,9.27c-.15,2.13-.34,4.26-.54,6.4-.31,3.29-.63,6.58-.93,9.87-.2,2.14-.34,4.27-.53,6.4-.31,3.42-.64,6.83-1,10.25-.19,2.13-.33,4.27-.52,6.4-.3,3.29-.63,6.58-.93,9.88-.19,2.13-.34,4.27-.53,6.4-.3,3.33-.64,6.66-.94,10-.2,2.21-.33,4.43-.53,6.64-.29,3.3-.62,6.59-.92,9.88-.2,2.13-.34,4.27-.54,6.4-.3,3.34-.64,6.67-.93,10-.2,2.17-.34,4.35-.53,6.52-.3,3.26-.69,6.5-.91,9.76-.14,2.1-.36,4.19-.55,6.28-.31,3.45-.63,6.91-.94,10.37-.18,2-.34,4-.53,6-.31,3.46-.64,6.91-.94,10.37-.19,2.21-.32,4.43-.52,6.64-.3,3.21-.63,6.42-.94,9.64-.18,2-.36,4-.52,6-.27,3.46-.54,6.92-.93,10.37-.26,2.2-.34,4.43-.54,6.64-.29,3.29-.63,6.59-.93,9.88-.19,2-.34,4.1-.53,6.15-.31,3.34-.64,6.67-.94,10-.2,2.25-.43,4.5-.49,6.76a1.87,1.87,0,0,1-1.54,2.09q-10.54,2.85-21.05,5.78c-7.33,2-14.65,4.07-22,6.1l-30.85,8.58c-6.74,1.88-13.48,3.72-20.21,5.62-1.24.35-1.25-.29-1.25-1.18q0-18.24,0-36.47c.4-.7,1.15-.72,1.79-.91,9-2.55,18.09-5,27.13-7.54,12.29-3.42,24.6-6.8,36.89-10.24,2.46-.69,4.94-1.34,7.4-2a1.63,1.63,0,0,0,1.36-1.6c.43-4.25.76-8.5,1.16-12.74.47-5.1.91-10.2,1.37-15.29.45-4.9.85-9.79,1.31-14.69.47-5.09.89-10.19,1.37-15.29.45-4.89.87-9.78,1.3-14.68.46-5.1.93-10.19,1.37-15.29.42-4.89.88-9.79,1.32-14.68.47-5.14.91-10.28,1.38-15.41.45-4.9.85-9.8,1.3-14.69q.71-7.64,1.37-15.29c.45-5.1.92-10.19,1.34-15.29.33-3.89.71-7.77,1-11.65.26-2.87.48-5.75.79-8.62.08-.81-.26-1.12-1-1.11H148.65C147.87,142.6,147,142.84,146.33,142.2Z" fill="#0066f9"/><path d="M146.33,142.2c.49,0,1,0,1.46,0q44.31,0,88.63,0c1.26,0,1.42.34,1.31,1.49-.76,7.92-1.44,15.86-2.15,23.79q-1.17,13-2.34,26-1,11.53-2,23.07t-2.09,23.18q-1,11.53-2.05,23.07-1.17,13.05-2.34,26.1-1,11.48-2.05,22.95c-.48,5.42-1,10.84-1.43,16.27-.06.79-.5.88-1.06,1l-31.54,8.75L147,349.42a5.69,5.69,0,0,0-.69.25l-.24-.07a2.17,2.17,0,0,1-.39-1.61q0-17.4,0-34.79a2.1,2.1,0,0,1,.39-1.61l.52-.25c.33-.49.87-.55,1.38-.69q18.48-5,36.95-10c1.65-.45,1.62-.46,1.78-2.12q1-10.19,1.84-20.39c.52-5.94,1.12-11.88,1.57-17.84.15-1.9.33-3.8.52-5.7.11-1-.31-1.31-1.22-1.25-.36,0-.73,0-1.1,0h-40a3.26,3.26,0,0,1-2-.31l-.24-.09a2.11,2.11,0,0,1-.39-1.61q0-16.65,0-33.32a2.15,2.15,0,0,1,.39-1.61l.24-.1a3.56,3.56,0,0,1,2.13-.31q21.57,0,43.14,0c2.45,0,2.43,0,2.63-2.5.59-7.08,1.25-14.15,1.88-21.22q.49-5.64,1-11.29c.15-1.61,0-1.78-1.87-1.78H148.46a3.56,3.56,0,0,1-2.13-.31l-.24-.1a2.15,2.15,0,0,1-.39-1.61q0-16.65,0-33.32a2,2,0,0,1,.39-1.6Z" fill="#fefefe"/><path d="M146.09,311.59v38c-3.05-.82-6.11-1.6-9.15-2.44q-32.4-9-64.8-18a1.35,1.35,0,0,1-1.2-1.45c-.66-7.77-1.38-15.53-2.08-23.3q-.92-10.25-1.8-20.51c-.34-3.88-.66-7.77-1-11.65-.08-.8.12-.95.87-.95q17.43,0,34.86,0c.73,0,1,.2,1,.93.43,5.14.91,10.28,1.37,15.41.35,4,.72,7.93,1,11.9.06.87.5,1.11,1.25,1.31Q126.27,306.19,146.09,311.59Z" fill="#eaeaea"/><path d="M146.09,142.28v36.53c-.4,0-.81,0-1.21,0q-42.85,0-85.7,0c-1.3,0-1.51-.47-1.61-1.55-.94-10.64-1.92-21.28-2.88-31.92,0-.48-.06-1-.1-1.46-.14-1.72-.14-1.72,1.55-1.72h88.49C145.12,142.24,145.61,142.27,146.09,142.28Z" fill="#eaeaea"/><path d="M146.09,216.43V253c-.4,0-.81,0-1.21,0q-39.57,0-79.12,0c-1.21,0-1.55-.31-1.64-1.51-.56-6.93-1.21-13.84-1.84-20.76q-.6-6.79-1.22-13.59c-.06-.57,0-.86.67-.8a4,4,0,0,0,.49,0h83C145.52,216.39,145.81,216.42,146.09,216.43Z" fill="#eaeaea"/><path d="M146.33,253.06c2.76,0,5.53,0,8.29,0,11.75,0,23.49,0,35.24,0,1,0,1.33.13,1.22,1.31-.83,8.66-1.56,17.32-2.33,26-.57,6.43-1.17,12.87-1.7,19.3-.07.86-.51,1.05-1.18,1.23q-14.46,3.9-28.91,7.8c-3.44.93-6.9,1.81-10.35,2.72-.48-.43-.27-1-.27-1.49Q146.33,281.46,146.33,253.06Z" fill="#0067f9"/><path d="M146.33,178.91c.37,0,.73,0,1.09,0q24.45,0,48.9,0c1.07,0,1.37.21,1.26,1.33-.73,7.81-1.4,15.62-2.09,23.43-.35,3.93-.77,7.85-1,11.78-.08,1.06-.58,1-1.31,1H155.47c-3.05,0-6.09,0-9.14,0Z" fill="#0067f9"/></g></g></g></svg>