<svg xmlns="http://www.w3.org/2000/svg" viewBox="0 0 244.68 175.6"><g id="Calque_2" data-name="Calque 2"><g id="Calque_1-2" data-name="Calque 1"><g id="Docker"><path d="M134.81,0a2.66,2.66,0,0,1,1.25,2.56c-.05,6,0,11.93,0,17.9,0,2-.57,2.54-2.53,2.55H113.17c-2,0-2.52-.58-2.52-2.55,0-6,0-11.94,0-17.91A2.62,2.62,0,0,1,111.89,0Z" fill="#0098f3"/><path d="M88.26,83.11c26.58,0,53.16,0,79.75,0a44.14,44.14,0,0,0,17.52-3.64c1-.42,1.14-.75.56-1.75-5.19-8.92-5.65-18.37-2.9-28.11a46.18,46.18,0,0,1,7.47-15.08c.3-.4.47-.76,1.14-.4,9.73,5.28,16.44,13,19.56,23.77a22.46,22.46,0,0,1,.72,3.33c.1.7.37.72,1,.63a54.2,54.2,0,0,1,15.78-.36c5.54.76,10.81,2.23,15.17,6a1.4,1.4,0,0,1,.56,1.8c-4,11.4-12.23,18.16-23.61,21.41a41.45,41.45,0,0,1-12.54,1.44,1.62,1.62,0,0,0-1.84,1.22,163.89,163.89,0,0,1-16,31.25c-15.56,23.17-37,38.11-63.77,45.61A154.84,154.84,0,0,1,80,175.51a129.63,129.63,0,0,1-33.26-5c-9.9-3-18.77-7.63-25.86-15.33A70.44,70.44,0,0,1,7,131.88,111,111,0,0,1,.37,100.44c-.21-3-.23-5.93-.36-8.89-.23-5.27,3.8-8.5,8.38-8.49C35,83.16,61.63,83.11,88.26,83.11Z" fill="#0098f3"/><path d="M63.22,27.69c3.45,0,6.91,0,10.36,0,1.79,0,2.36.64,2.36,2.48q0,9,0,18c0,1.86-.65,2.52-2.47,2.52H53c-1.82,0-2.49-.66-2.49-2.51q0-9,0-18c0-1.87.58-2.48,2.48-2.49,3.41,0,6.82,0,10.23,0Z" fill="#0098f3"/><path d="M93.51,27.69c3.45,0,6.9,0,10.35,0,1.72,0,2.32.66,2.33,2.4q0,9.07,0,18.15c0,1.83-.68,2.47-2.53,2.47H83.32c-1.92,0-2.58-.63-2.58-2.55q0-9,0-18c0-1.79.61-2.42,2.41-2.44C86.6,27.67,90.06,27.69,93.51,27.69Z" fill="#0098f3"/><path d="M123.47,27.69c3.41,0,6.83,0,10.24,0,1.75,0,2.32.64,2.33,2.37V48.34c0,1.7-.67,2.38-2.35,2.38H113c-1.67,0-2.32-.69-2.33-2.39V30.05c0-1.72.59-2.34,2.35-2.35C116.49,27.66,120,27.69,123.47,27.69Z" fill="#0098f3"/><path d="M63.16,78.37H52.92c-1.78,0-2.41-.63-2.41-2.44q0-9.08,0-18.15c0-1.78.66-2.42,2.44-2.42H73.54c1.71,0,2.4.63,2.4,2.33q0,9.2,0,18.39c0,1.64-.66,2.28-2.31,2.28C70.14,78.38,66.65,78.37,63.16,78.37Z" fill="#0098f3"/><path d="M93.39,78.37H83.16c-1.77,0-2.42-.65-2.42-2.44q0-9.08,0-18.15c0-1.77.68-2.42,2.45-2.42h20.59c1.71,0,2.4.63,2.4,2.33q0,9.2,0,18.39c0,1.65-.67,2.28-2.31,2.28C100.38,78.38,96.88,78.37,93.39,78.37Z" fill="#0098f3"/><path d="M153.41,78.37H143.3c-1.94,0-2.54-.6-2.54-2.56q0-9,0-17.91c0-1.94.63-2.54,2.57-2.54h20.34c1.92,0,2.54.62,2.54,2.57q0,9,0,17.9c0,1.94-.61,2.53-2.56,2.54Z" fill="#0098f3"/><path d="M33.5,55.36H43.73c1.74,0,2.39.59,2.4,2.3q0,9.14,0,18.27c0,1.9-.6,2.44-2.52,2.44H23.29c-2,0-2.55-.59-2.56-2.54V57.93c0-2,.62-2.57,2.54-2.57Z" fill="#0098f3"/><path d="M123.35,78.37H113.12c-1.88,0-2.46-.6-2.47-2.48v-18c0-1.88.61-2.5,2.45-2.5h20.47c1.86,0,2.47.61,2.47,2.48v18c0,1.89-.58,2.49-2.45,2.5Z" fill="#0098f3"/></g></g></g></svg>