<svg xmlns="http://www.w3.org/2000/svg" viewBox="0 0 354.2 499.73"><g id="Calque_2" data-name="Calque 2"><g id="Calque_1-2" data-name="Calque 1"><g id="HTML"><path d="M177.24,499.73h-1c-10.23-2.28-20.23-5.43-30.35-8.17-15-4.07-29.93-8.28-44.9-12.41q-17-4.71-34.08-9.45-16.56-4.59-33.14-9.18c-1.86-.52-1.9-.55-2.09-2.44-.78-8.21-1.45-16.43-2.2-24.64q-1.18-13-2.34-26c-.61-6.83-1.19-13.68-1.81-20.51q-.8-8.86-1.59-17.72-.92-10.26-1.82-20.52c-.51-5.91-1.08-11.81-1.59-17.72s-1.06-11.89-1.58-17.84-1-11.74-1.57-17.6q-.69-7.65-1.35-15.3c-.43-5-.89-9.95-1.34-14.93s-.86-9.95-1.33-14.93-.91-10-1.34-15-.92-10.19-1.36-15.29-.87-10-1.33-14.93c-.37-4-.72-8-1.08-12Q7.4,185.4,6.69,177.7c-.44-4.94-.85-9.88-1.31-14.81s-.89-10-1.34-15Q3.5,141.78,3,135.71c-.36-4.21-.77-8.42-1.12-12.63s-.75-8.41-1.11-12.62c-.29-3.4-.55-6.8-.7-10.2.09-.68-.2-1.38.2-2A2.08,2.08,0,0,1,1.4,98H351.15a8.1,8.1,0,0,1,2.55.14c.8.88.42,2,.35,2.9-.66,9-1.52,17.89-2.32,26.83q-.9,10.14-1.83,20.27-.79,8.93-1.57,17.85c-.52,5.9-1.07,11.81-1.59,17.72-.44,5.05-.92,10.11-1.34,15.17-.32,4-.74,8-1.09,12s-.73,8.09-1.08,12.14-.76,8.33-1.11,12.5-.76,8.33-1.1,12.5c-.32,3.93-.72,7.85-1.06,11.78-.36,4.25-.77,8.49-1.12,12.74-.33,4-.73,7.93-1.07,11.9s-.75,8.25-1.11,12.38c-.45,5.09-.94,10.19-1.37,15.29-.35,4.17-.75,8.33-1.1,12.5-.41,4.9-.86,9.79-1.3,14.69q-.56,6.19-1.12,12.38c-.46,5.1-.9,10.2-1.36,15.29s-.87,9.88-1.32,14.81-.92,10.12-1.35,15.18-.93,10.19-1.36,15.29q-.61,7.35-1.31,14.69c-.46,5-.87,10-1.34,14.93-.52,5.54-1,11.09-1.48,16.63a1.74,1.74,0,0,1-1.48,1.67l-15.63,4.33Q285.51,470,265.88,475.4c-12.73,3.52-25.49,7-38.21,10.52-9.91,2.77-19.83,5.46-29.72,8.29-6,1.72-12,3.33-18,5C179.08,499.49,178.12,499.41,177.24,499.73Z" style="fill:#f63c01"/><path d="M177,172c0-14.23,0-28.46,0-42.69,0-1.08.23-1.46,1.4-1.46q71,.06,142,0c1.33,0,1.46.16,1.3,1.48-.43,3.57-.7,7.15-1,10.73-.32,4-.82,7.95-1.18,11.92-.3,3.22-.48,6.45-.76,9.67s-.65,6.18-.94,9.27c-.21,2.25-.32,4.51-.52,6.77-.29,3.17-.64,6.34-.93,9.51-.21,2.22-.34,4.44-.54,6.65-.29,3.21-.62,6.42-.92,9.64-.2,2.17-.34,4.35-.54,6.52-.3,3.29-.64,6.59-.93,9.88-.2,2.21-.33,4.43-.53,6.64-.29,3.22-.63,6.43-.93,9.64-.19,2.18-.34,4.35-.54,6.53-.3,3.29-.63,6.58-.93,9.88-.2,2.21-.33,4.43-.53,6.64-.29,3.22-.63,6.43-.92,9.64-.2,2.17-.35,4.35-.54,6.52-.3,3.3-.68,6.59-.92,9.89q-.22,3.13-.54,6.27c-.34,3.38-.65,6.75-.95,10.13-.19,2.17-.32,4.35-.52,6.52-.3,3.26-.63,6.51-.93,9.76-.19,2.13-.34,4.27-.53,6.4-.31,3.34-.64,6.67-.94,10-.2,2.18-.33,4.35-.53,6.53-.29,3.25-.63,6.5-.93,9.76-.19,2.13-.34,4.27-.53,6.4-.3,3.33-.64,6.67-.94,10-.19,2.21-.33,4.43-.53,6.65-.29,3.21-.62,6.42-.92,9.63-.2,2.14-.34,4.27-.54,6.4-.3,3.34-.64,6.67-.93,10-.2,2.21-.33,4.43-.53,6.64-.29,3.22-.63,6.43-.93,9.64-.19,2.13-.34,4.27-.54,6.4q-.45,5-.94,10c-.09.93,0,1.85-.16,2.79a1.57,1.57,0,0,1-1.34,1.44q-6.62,1.81-13.21,3.67l-20.92,5.83-30.5,8.54c-9.58,2.67-19.18,5.3-28.76,8q-10.47,2.93-20.91,5.9c-1.57.45-1.56.48-1.56-1.16q0-21.35,0-42.7a2.32,2.32,0,0,0-.23-1.53.63.63,0,0,1,.36-.54c4.14-1.34,8.36-2.39,12.55-3.56,12.3-3.44,24.6-6.83,36.9-10.25l38.9-10.79c1.74-.48,1.78-.59,1.92-2.42.31-4,.71-8,1.07-12,.47-5,.87-10,1.35-15.05s.89-10.12,1.36-15.17.89-9.87,1.33-14.81c.36-4.09.75-8.17,1.1-12.26.43-4.94.89-9.87,1.33-14.81.46-5.1.9-10.2,1.37-15.29s.86-9.88,1.32-14.81.88-10.12,1.38-15.18c.09-1,.09-1.94.25-2.91.12-.7-.18-1.09-.92-1.1l-1.22,0H177.84l-1.22,0a8.29,8.29,0,0,1-1.22,0H120.89c-2.71,0-2.85-.17-3.07-2.85-.64-7.9-1.42-15.79-2.12-23.68-.52-5.95-1.17-11.89-1.56-17.85-.1-1.56.11-1.77,1.68-1.78,5.41,0,10.82,0,16.22,0,14,0,27.89,0,41.84,0,35.85.1,71.71,0,107.56,0,.66,0,1.42.25,1.89-.5a71.09,71.09,0,0,0,.85-8c.47-4.85.93-9.69,1.35-14.54s.91-9.69,1.35-14.54c.13-1.41.25-2.83.39-4.24.05-.56.22-1.13-.19-1.63-.57-.47-1.25-.28-1.88-.28l-106,0C178.45,172.38,177.64,172.63,177,172Z" style="fill:#fe5700"/><path d="M283.79,215.73c0,.33.09.68-.4.7-.28,0-.57,0-.85,0H177.41q-30.85,0-61.71,0c-1,0-1.35.09-1.24,1.29,1.2,12.54,2.31,25.09,3.44,37.63.16,1.78.4,3.56.45,5.34,0,1,.47,1.14,1.34,1.14,9,0,18.05,0,27.07,0h28.66c.44,0,.89,0,1.34,0a2.25,2.25,0,0,1,.38,1.61q0,20.58,0,41.15a3.92,3.92,0,0,1-.1,1.08,1.1,1.1,0,0,1-.24.42c-.53,0-1.05-.09-1.57-.09q-48,0-96,0c-1.26,0-1.5-.38-1.59-1.54-.73-8.62-1.55-17.23-2.33-25.85-.69-7.61-1.35-15.22-2-22.82-.77-8.58-1.57-17.16-2.34-25.74q-1-11.4-2-22.82-1.15-12.87-2.34-25.73c-.26-2.83-.47-5.67-.8-8.49-.14-1.19.56-1,1.24-1H175.53c.49,0,1,0,1.46-.06s1.06.05,1.58.05h107.7c.49,0,1.05-.24,1.48.22a1.84,1.84,0,0,1-1.25.4c-.57,0-1.14,0-1.71,0h-105c-2.84,0-2.64-.14-2.64,2.66v38.3c0,2.15,0,2.16,2.15,2.16H281.24C282.09,215.82,282.94,215.67,283.79,215.73Z" style="fill:#ebe0dd"/><path d="M177.06,422.91l-.3.28-28.95-8.12q-30.25-8.43-60.5-16.85a1.59,1.59,0,0,1-1.39-1.7q-1.26-14.68-2.62-29.38L80.48,336c-.21-2.23-.36-4.46-.59-6.68-.08-.77.06-1.06.92-1.06q21.28,0,42.56,0c.73,0,1,.2,1,.93.51,6.07,1.06,12.14,1.6,18.21.45,5.1.91,10.2,1.34,15.3a1.23,1.23,0,0,0,1.09,1.29q23.82,6.33,47.61,12.74a1.67,1.67,0,0,0,1,.09c.23-.13.44-.2.52.16a6.25,6.25,0,0,0-.38,2.39q0,21.12,0,42.26A5.92,5.92,0,0,1,177.06,422.91Z" style="fill:#eaeaea"/><path d="M177.48,376.8l-.48,0q0-34.56,0-69.12a2.67,2.67,0,0,0-.2-1.55.11.11,0,0,0,0-.12,2.35,2.35,0,0,1,1.63-.35h51.35c1.84,0,2.12.37,2,2.17q-.85,9.17-1.66,18.33c-.51,5.79-1.07,11.57-1.58,17.36-.44,5-.91,9.95-1.33,14.93-.11,1.33-.23,2.67-.38,4a2.14,2.14,0,0,1-1.79,2c-4.44,1.16-8.87,2.37-13.31,3.56-10.76,2.87-21.51,5.78-32.27,8.64C178.75,376.8,178.14,377.14,177.48,376.8Z" style="fill:#fe5800"/><path d="M.17,98.35c.34-.33.77-.16,1.16-.16H352.67c.38,0,.81-.17,1.15.16l-1.21,0H1.39Z" style="fill:#fe5700"/><path d="M233.65,34.36,218.17,58.19c-5.21-8-10.35-15.94-15.48-23.85l-.24.06v1.15c0,10.2,0,20.41,0,30.61,0,1-.28,1.24-1.27,1.23q-9.87-.06-19.75,0c-.86,0-1.06-.21-1.06-1.06q0-32.64,0-65.26c0-.86.21-1.07,1.06-1.06,7.16,0,14.31,0,21.46,0a1.65,1.65,0,0,1,1.6,1q6.59,10.89,13.22,21.74c.19.31.38.62.63,1,.3-.48.59-.91.85-1.35q6.53-10.69,13-21.42A1.61,1.61,0,0,1,233.86,0c7.11,0,14.23,0,21.34,0,.91,0,1.13.21,1.13,1.13q0,32.57,0,65.14c0,.91-.21,1.13-1.12,1.12q-10.12-.06-20.25,0c-.93,0-1.12-.24-1.12-1.14,0-10.16,0-20.33,0-30.5V34.42Z"/><path d="M98.53,33.69c0,10.82,0,21.63,0,32.45,0,1-.21,1.27-1.24,1.26-6.71-.06-13.41-.05-20.12,0-.93,0-1.13-.24-1.13-1.14,0-6.71,0-13.42.06-20.13,0-1.06-.31-1.23-1.28-1.22q-9,.08-17.93,0c-1,0-1.36.18-1.35,1.3.07,6.67,0,13.33.06,20,0,.94-.22,1.2-1.18,1.19q-10.19-.06-20.37,0c-1,0-1.1-.28-1.1-1.15q0-32.56,0-65.14C33,.17,33.23,0,34.11,0c6.71,0,13.41,0,20.12,0,1.06,0,1.23.33,1.23,1.3-.05,6.58,0,13.17,0,19.75,0,.88.1,1.25,1.14,1.24,6.14-.06,12.28-.05,18.41,0,.9,0,1.15-.19,1.14-1.12,0-6.66,0-13.33,0-20,0-.88.16-1.16,1.11-1.16Q87.31.08,97.42,0c.91,0,1.13.21,1.13,1.13Q98.51,17.41,98.53,33.69Z"/><path d="M139.52,0c9.95,0,19.91,0,29.87,0,.94,0,1.21.21,1.21,1.18q-.07,10.07,0,20.13c0,1-.3,1.18-1.22,1.18-5.85-.05-11.71,0-17.56-.05-.92,0-1.2.2-1.19,1.17,0,14.15,0,28.3,0,42.45,0,1-.16,1.34-1.28,1.33-6.63-.06-13.25-.05-19.88,0-1,0-1.34-.16-1.33-1.28,0-14.07,0-28.13.06-42.2,0-1.29-.37-1.47-1.53-1.46-5.73.06-11.46,0-17.19.05-.91,0-1.13-.21-1.13-1.12q.08-10.12,0-20.25c0-.91.21-1.13,1.12-1.13C119.52,0,129.52,0,139.52,0Z"/><path d="M267.47,33.66q0-16.21,0-32.44c0-.89.14-1.23,1.15-1.22q10,.08,20,0c1,0,1.34.18,1.34,1.3-.05,14.14,0,28.29-.06,42.44,0,1.2.32,1.43,1.46,1.43,9.68-.05,19.35,0,29-.06,1.17,0,1.35.35,1.35,1.4q-.07,9.89,0,19.76c0,.91-.21,1.12-1.13,1.12q-26,0-51.94,0c-.92,0-1.2-.19-1.2-1.17C267.48,55.37,267.47,44.51,267.47,33.66Z"/><path d="M177.48,376.8l26.31-7.09q10.69-2.88,21.39-5.71a1.3,1.3,0,0,0,1.18-1.36c.84-9.83,1.74-19.66,2.63-29.49.77-8.58,1.54-17.16,2.36-25.73.11-1.07-.11-1.36-1.23-1.35q-25.91,0-51.8,0a4.15,4.15,0,0,1-1.57-.11q0-22.08,0-44.14c.4,0,.81,0,1.21,0H278.23c1.56,0,1.55,0,1.4,1.6q-1.45,16.16-2.9,32.3-1.53,17-3.08,34t-3,34c-1,11-2,22-2.94,33a1.42,1.42,0,0,1-1.25,1.46q-44.28,12.26-88.55,24.55c-.27.07-.56.12-.83.17-.42-.28-.3-.72-.3-1.11q0-21.84,0-43.67C176.74,377.48,176.87,377.05,177.48,376.8Z" style="fill:#fefefe"/><path d="M283.79,215.73a1.08,1.08,0,0,1-1,.49c-.57,0-1.14,0-1.71,0H178.39c-1.64,0-1.64,0-1.64-1.65V174c0-1.66,0-1.66,1.62-1.66H287.75c-.37,4.29-.72,8.58-1.11,12.87-.67,7.48-1.38,15-2.07,22.45C284.32,210.31,284.05,213,283.79,215.73Z" style="fill:#fefefe"/></g></g></g></svg>