<svg xmlns="http://www.w3.org/2000/svg" viewBox="0 0 195.17 195.15"><g id="Calque_2" data-name="Calque 2"><g id="Calque_1-2" data-name="Calque 1"><g id="Next.js"><path d="M195.14,93.92a70.07,70.07,0,0,0-1-12.6,98,98,0,0,0-12.43-33.77A96.19,96.19,0,0,0,163.28,25,97,97,0,0,0,124.81,3.45c-6.45-1.83-13-3.32-19.75-3.32h-3.85A17.22,17.22,0,0,1,98,0H89.71c-1.47.23-3,.11-4.45.29A95.58,95.58,0,0,0,55.13,9.17a99.91,99.91,0,0,0-19.2,12.16A95.87,95.87,0,0,0,19,38.9,99.29,99.29,0,0,0,7.1,59.68,97.81,97.81,0,0,0,.84,81.4C.44,83.84.3,86.29,0,88.74v17.55c.26,1.23.16,2.49.32,3.73a98.59,98.59,0,0,0,5.15,21.14,96.42,96.42,0,0,0,11.34,21.9,99.89,99.89,0,0,0,15,17.09A98.32,98.32,0,0,0,52,184.3a101.64,101.64,0,0,0,24.41,8.93c9.34,2.21,18.79,2,28.24,1.87a44.22,44.22,0,0,0,6.06-.5,100.84,100.84,0,0,0,27.43-7.88,55.76,55.76,0,0,0,5-2.51c1-.57,1-.91.33-1.84-.44-.59-.92-1.13-1.36-1.72-5.61-7.68-11.32-15.27-17-22.92-4.12-5.6-8.41-11.07-12.38-16.77-7.27-10.43-14.23-21.06-21.41-31.56C86,101.49,80.61,93.53,75.24,85.59c-.38-.57-.8-1.12-1.22-1.68-.19-.26-.41-.58-.76-.51s-.39.48-.42.8a23.37,23.37,0,0,0-.28,3c0,3.41,0,6.82,0,10.23-.09,13.81.22,27.62-.24,41.42-.08,2.48-1.19,3.63-3.7,3.65H65c-2.44,0-3.7-1.22-3.7-3.64q0-36.87,0-73.74a3.19,3.19,0,0,1,3.33-3.38c1.75,0,3.5,0,5.24,0a3.61,3.61,0,0,1,3.36,1.81c1.6,2.54,3.33,5,5,7.5q15.15,22.86,30.25,45.74,6.62,10.08,13.27,20.15,13.76,20.78,27.53,41.55c1,1.48,1.24,1.51,2.7.51a99.45,99.45,0,0,0,33.15-37.61,97.11,97.11,0,0,0,6.41-16.18,91.48,91.48,0,0,0,3.36-17C195.34,103.5,195.11,98.71,195.14,93.92Zm-62,36.23-.24.08-2.65-4-8.71-13.33a2.7,2.7,0,0,1-.58-1.55c.1-16.16-.14-32.32.13-48.48,0-2.31,1.56-4.31,4-4.17,1.5.08,3-.07,4.5,0a3.56,3.56,0,0,1,3.5,3.74q0,17.54.06,35.08Q133.13,113.83,133.11,130.15Z"/></g></g></g></svg>