<svg xmlns="http://www.w3.org/2000/svg" viewBox="0 0 624.5 382.18"><g id="Calque_2" data-name="Calque 2"><g id="Calque_1-2" data-name="Calque 1"><g id="Node.js"><path d="M461,27.77a8.33,8.33,0,0,0-4.73-8.06C444.49,13.2,432.72,6.58,420.94,0H419c-2,1-2.68,2.59-2.67,4.81,0,29.92,0,59.84.08,89.76,0,2.81-2.23,4-4.54,2.59-4.48-2.79-9.14-5.28-13.69-8a7.69,7.69,0,0,0-8.38,0q-29.35,17-58.74,33.88a7.53,7.53,0,0,0-4.09,7.07q0,33.9,0,67.81a7.73,7.73,0,0,0,4.2,7.25Q360.43,222.1,389.66,239a8,8,0,0,0,8.73,0q29-16.78,58-33.47a8.5,8.5,0,0,0,4.68-8.11Q461,112.6,461,27.77ZM414.69,177.91Q405,183.42,395.39,189a2.71,2.71,0,0,1-3.06,0q-9.61-5.61-19.3-11.12a2.79,2.79,0,0,1-1.56-2.75c0-7.35,0-14.71,0-22.07a2.91,2.91,0,0,1,1.65-2.83q9.63-5.47,19.19-11.07a2.68,2.68,0,0,1,3,0q9.63,5.61,19.3,11.13a2.77,2.77,0,0,1,1.56,2.75c-.05,3.7,0,7.4,0,11.09h0c0,3.7,0,7.4,0,11.1A2.69,2.69,0,0,1,414.69,177.91Z" style="fill:#333"/><path d="M0,126.6c.69-2.85,2.6-4.56,5.08-6Q34,104.09,62.81,87.44a7.77,7.77,0,0,1,8.39,0q29.37,16.93,58.77,33.81a7.44,7.44,0,0,1,4,7Q134,174,133.93,219.8c0,3.57-2.8,5.17-5.9,3.4q-17.27-9.88-34.54-19.76a7.68,7.68,0,0,1-4.15-7.19c0-13.9,0-27.8,0-41.71A8,8,0,0,0,85,146.89c-4.67-2.61-9.3-5.31-13.93-8a7.48,7.48,0,0,0-8.07,0q-7.17,4.15-14.35,8.26a7.42,7.42,0,0,0-4,6.9c0,14,0,28,0,42a8,8,0,0,1-4.45,7.62q-17.19,9.78-34.35,19.63C3.29,224.76,1,223.82.22,221a3.72,3.72,0,0,1-.09-1.45q0-27.11,0-54.22A2.91,2.91,0,0,0,0,163.93Z" style="fill:#333"/><path d="M490.81,163.25c0-11.14.05-22.28,0-33.42a8.31,8.31,0,0,1,4.57-7.93q29-16.61,57.89-33.39a8.31,8.31,0,0,1,9.15,0q29,16.94,58.11,33.74a7.38,7.38,0,0,1,4,6.88c0,5.32,0,10.65,0,16a7.33,7.33,0,0,1-3.92,6.8q-17.6,10.21-35.17,20.41c-2.94,1.7-5.78.06-5.79-3.34,0-5.33,0-10.65,0-16a4.2,4.2,0,0,0-2.34-4q-8.89-5-17.72-10.2a4.16,4.16,0,0,0-4.58,0q-8.88,5.19-17.82,10.28a4.07,4.07,0,0,0-2.24,3.86c0,6.79,0,13.58,0,20.37a4.49,4.49,0,0,0,2.54,4.32q29.37,16.8,58.72,33.65a4.89,4.89,0,0,1,2.16,1.89c1,1.88.31,3.85-1.77,5q-8.51,4.76-17,9.47c-6,3.31-11.94,6.58-17.87,9.94a7.92,7.92,0,0,1-8.5-.07q-29-16.59-58.07-33.07a7.89,7.89,0,0,1-4.31-7.46C490.84,185.69,490.81,174.47,490.81,163.25Z" style="fill:#333"/><path d="M246.23,231c-4.17,2.59-8.43,5-12.74,7.36a4.28,4.28,0,0,1-2.41.64c-1.41-3.11-3.18-6-4.81-9-3.4-6.25-6.86-12.46-10.27-18.7s-6.92-12.62-10.38-18.92l-3.18-5.77a2.87,2.87,0,0,1-.55-2q0-39.56,0-79.09a6.38,6.38,0,0,1,.15-2.88c3.87-2.27,7.74-4.56,11.62-6.81q6.3-3.66,12.63-7.29a6.92,6.92,0,0,1,5.53-1.07,4.25,4.25,0,0,1,1.3,1.43c3.81,6.53,7.72,13,11.06,19.79a10,10,0,0,1,1,4.6q0,57.06,0,114.13c0,.45,0,.9,0,1.35A2,2,0,0,0,246.23,231Z" style="fill:#62ae59"/><path d="M240.37,305.32c0-10.57,0-21.14,0-31.71A12.38,12.38,0,0,1,247.07,262q27.63-15.86,55.21-31.8a12,12,0,0,1,12.75,0q27.66,15.91,55.3,31.9a12.33,12.33,0,0,1,6.61,11.5q0,31.72,0,63.43a12.34,12.34,0,0,1-6.64,11.49q-27.51,15.84-55,31.72a12.46,12.46,0,0,1-13.49-.11c-5.95-3.58-11.95-7.07-17.92-10.63-.64-.38-1.63-.67-1.54-1.54s1.15-.88,1.84-1.12a37.13,37.13,0,0,0,7.06-3.28,2.24,2.24,0,0,1,2.59,0c4.42,2.66,8.88,5.26,13.29,7.92a2.7,2.7,0,0,0,3.06,0q27.48-15.89,55-31.72a2.88,2.88,0,0,0,1.62-2.83q-.06-31.71,0-63.42a2.88,2.88,0,0,0-1.66-2.81Q337.76,255,310.39,239.17a3,3,0,0,0-3.38,0q-27.47,15.9-55,31.72a2.61,2.61,0,0,0-1.47,2.54q0,31.9,0,63.79a2.5,2.5,0,0,0,1.42,2.44c4.84,2.76,9.63,5.58,14.47,8.32a11.38,11.38,0,0,0,8.06,1.66,7.13,7.13,0,0,0,5.87-7.2q0-13.79,0-27.57V279.14c0-2,.47-2.45,2.44-2.45s3.9,0,5.85,0c1.56,0,2.13.59,2.13,2.16q0,32.08,0,64.16a21.78,21.78,0,0,1-1,6.6c-1.93,6.18-7,9.95-13.56,10.48a26.78,26.78,0,0,1-15.52-3.7c-4.68-2.6-9.29-5.34-13.94-8a12,12,0,0,1-6.42-11.11Q240.39,321.3,240.37,305.32Z" style="fill:#55a05c"/><path d="M246.23,231c-1.31.25-1.5-.41-1.5-1.57q0-56.94.07-113.88a17.8,17.8,0,0,0-2.06-8.94q-3.66-6.73-7.52-13.35c-1.12-1.92-2.26-3.84-3.39-5.76a8.79,8.79,0,0,1,2.9,1.1l58.36,33.68a5.36,5.36,0,0,1,2.22,1.84,11.7,11.7,0,0,1-1.51,3.17c-4.6,8.36-9.15,16.75-13.74,25.12-1.39,2.53-2.74,5.08-4.17,7.59-.73,1.29-1.15,1.31-1.94.09s-1.32-2.33-2-3.46a5,5,0,0,0-1.42-1.62,1.79,1.79,0,0,0-.24,1.36q0,29.07,0,58.14a4.94,4.94,0,0,0,.44,2.37c-3.53,2.27-7.24,4.25-10.87,6.35C255.29,225.86,250.76,228.43,246.23,231Z" style="fill:#519c51"/><path d="M301.56,315h3.3a1.74,1.74,0,0,1,1.93,1.61c.11.68.27,1.35.43,2a9.75,9.75,0,0,0,7,7.53,34,34,0,0,0,8.89,1.33,41.85,41.85,0,0,0,13.43-1.11c2.88-.83,5.31-2.27,6.16-5.46,1-3.81-.09-6.1-3.75-7.55A44.91,44.91,0,0,0,328.29,311c-5.79-.77-11.65-1.06-17.32-2.66a24.13,24.13,0,0,1-6.89-3,12.76,12.76,0,0,1-5.86-10.31c-.56-8.66,3.35-14.64,11.48-17.75A40.45,40.45,0,0,1,325.27,275a45.33,45.33,0,0,1,12.62,1.79c8.34,2.59,13.1,8.37,14,17,.21,2.1-.3,2.68-2.38,2.69h-5.61c-1.9,0-2.24-.23-2.69-2.09a10.85,10.85,0,0,0-9.36-8.85,39.54,39.54,0,0,0-4.71-.56,37.38,37.38,0,0,0-11.74.86,10.71,10.71,0,0,0-3.33,1.48,6.59,6.59,0,0,0-2.53,7.32,4.36,4.36,0,0,0,2.86,2.63,39.89,39.89,0,0,0,8.27,2c6.69,1.11,13.47,1.64,20,3.41a29,29,0,0,1,6.46,2.49c4.46,2.44,6.61,6.29,6.93,11.28.67,10.32-5.12,16.13-13.37,18.91-6.43,2.17-13.08,2.32-19.76,1.84a36.93,36.93,0,0,1-14.56-3.6c-6.75-3.48-10-9.14-10.12-16.65,0-1.39.58-2,2-2C299.37,315,300.46,315,301.56,315Z" style="fill:#55a05c"/><path d="M202.05,185.15q6.09,11.15,12.19,22.3,4.5,8.22,9,16.41c2.5,4.55,5,9.08,7.5,13.64.24.44.82.89.32,1.52a7.18,7.18,0,0,1-4.4-1.07l-59.05-34.07a6,6,0,0,1-2.19-1.89c-.32-.77.19-1.34.53-1.9,3-5.06,5.95-10.17,8.94-15.25q6.36-10.83,12.68-21.68a4.14,4.14,0,0,1,1.28-1.74c.75.17.93.86,1.22,1.4,1.91,3.57,3.9,7.09,5.84,10.64,1.71,3.13,3.41,6.26,5.16,9.36A6.8,6.8,0,0,1,202.05,185.15Z" style="fill:#108732"/><path d="M270.68,216.9c-.79-.09-.8-.66-.79-1.26,0-2.35,0-4.71,0-7.07V155.81c0-.33,0-.65,0-1s0-.43.19-.52.37.09.52.22a13,13,0,0,1,2.62,3.63l1.68,2.87c1-1.82,2-3.49,2.92-5.18q8.35-15.32,16.7-30.65a10,10,0,0,1,.78-1.06,7.27,7.27,0,0,1,1.87,5.47q0,26.92,0,53.87,0,6.57,0,13.16a5.47,5.47,0,0,1-.18,1.93c-.62,0-.81-.49-1-.89-3.95-6.81-8-13.59-11.94-20.39a3.65,3.65,0,0,0-1.3-1.64c-.35.39-.24.84-.24,1.26q0,15.53,0,31.06c0,.7.18,1.37.14,2.06-2.67,1.65-5.36,3.25-8.16,4.68C273.14,215.36,271.93,216.16,270.68,216.9Z" style="fill:#218b37"/><path d="M202.05,185.15c-1.55-2.79-3.12-5.58-4.66-8.38-2.73-4.93-5.43-9.87-8.15-14.8a4.17,4.17,0,0,0-.36-.47,19.78,19.78,0,0,1-2.51-4.15c-4.78-8.78-9.65-17.51-14.42-26.29-1.28-2.36-2.59-4.69-3.86-7a2,2,0,0,1-.44-1.48q6.43-3.77,12.88-7.52l21.16-12.26a.85.85,0,0,1,.36-.06,6.77,6.77,0,0,1,.25,1.91q0,39.45,0,78.89A2.88,2.88,0,0,1,202.05,185.15Z" style="fill:#47c12c"/><path d="M167.65,122.53q6,10.89,11.91,21.77c2.94,5.37,5.91,10.72,8.86,16.08a8.49,8.49,0,0,1,.46,1.12l-9,15.4q-5,8.53-10,17.07c-1.16,2-2.35,4-3.52,5.95a6.91,6.91,0,0,0-1,2.07,7.32,7.32,0,0,1-1.63-5q0-33.9,0-67.79A7.12,7.12,0,0,1,167.65,122.53Z" style="fill:#3b9843"/><path d="M570.53,163c0,2,0,4.07,0,6.1a1.9,1.9,0,0,1-1.06,1.87q-5.34,3-10.65,6.15a2,2,0,0,1-2.27,0Q551.31,174,546,171a2.07,2.07,0,0,1-1.19-2.05c0-4.06,0-8.12,0-12.18a2,2,0,0,1,1.11-2q5.29-3,10.55-6.07a2.09,2.09,0,0,1,2.37,0q5.21,3,10.45,6a2.16,2.16,0,0,1,1.24,2.15C570.48,158.89,570.53,160.92,570.53,163Z" style="fill:#55a05c"/><path d="M282.58,210a1.79,1.79,0,0,1-.49-1.56q0-16.2,0-32.41c0-.38-.21-.92.29-1.07s.82.34,1,.7q2.47,4.11,4.9,8.26c2.39,4.08,4.76,8.18,7.17,12.26a9.66,9.66,0,0,0,1.48,2.36,5.67,5.67,0,0,1-2.86,4.8C290.33,205.69,286.43,207.82,282.58,210Z" style="fill:#108832"/><path d="M399,269.37c1.69-1.2,2.21-2.48,1.66-4.17-.44-1.35-1.58-2-3.66-2-1.3,0-2.6,0-3.9,0-.49,0-.74.11-.73.67,0,3.62,0,7.23,0,10.85,0,.32,0,.6.44.7,1.51.31,2,0,2-1.53v-1.46c0-2,0-1.93,1.93-1.92a1.35,1.35,0,0,1,1.5,1.38c.06.48.1,1,.18,1.45.35,2.25.35,2.25,2.8,2C400.17,273.42,401.42,270.76,399,269.37Zm-3.14-.82c-1.15,0-1.15,0-1.14-1.71.05-1.92-.27-1.66,1.66-1.67,1.48,0,2,.44,2.06,1.58S397.67,268.56,395.88,268.55Z" style="fill:#55a15c"/><path d="M396.52,258.42a10.85,10.85,0,1,0,0,21.69,10.85,10.85,0,0,0,0-21.69Zm-.23,19.95a9.13,9.13,0,0,1-8.94-9.33,9.11,9.11,0,1,1,8.94,9.33Z" style="fill:#55a15c"/><path d="M399,269.37c1.69-1.2,2.21-2.48,1.66-4.17-.44-1.35-1.58-2-3.66-2-1.3,0-2.6,0-3.9,0-.49,0-.74.11-.73.67,0,3.62,0,7.23,0,10.85,0,.32,0,.6.44.7,1.51.31,2,0,2-1.53v-1.46c0-2,0-1.93,1.93-1.92a1.35,1.35,0,0,1,1.5,1.38c.06.48.1,1,.18,1.45.35,2.25.35,2.25,2.8,2C400.17,273.42,401.42,270.76,399,269.37Zm-3.14-.82c-1.15,0-1.15,0-1.14-1.71.05-1.92-.27-1.66,1.66-1.67,1.48,0,2,.44,2.06,1.58S397.67,268.56,395.88,268.55Z" style="fill:#fefefe"/><path d="M399,269.37c1.69-1.2,2.21-2.48,1.66-4.17-.44-1.35-1.58-2-3.66-2-1.3,0-2.6,0-3.9,0-.49,0-.74.11-.73.67,0,3.62,0,7.23,0,10.85,0,.32,0,.6.44.7,1.51.31,2,0,2-1.53v-1.46c0-2,0-1.93,1.93-1.92a1.35,1.35,0,0,1,1.5,1.38c.06.48.1,1,.18,1.45.35,2.25.35,2.25,2.8,2C400.17,273.42,401.42,270.76,399,269.37Zm-3.14-.82c-1.15,0-1.15,0-1.14-1.71.05-1.92-.27-1.66,1.66-1.67,1.48,0,2,.44,2.06,1.58S397.67,268.56,395.88,268.55Z" style="fill:#55a15c"/></g></g></g></svg>