<svg xmlns="http://www.w3.org/2000/svg" viewBox="0 0 54.69 54.93"><defs><style>.cls-1{fill:#fefefe;}.cls-2{fill:#171719;}</style></defs><g id="Calque_2" data-name="Calque 2"><g id="Calque_1-2" data-name="Calque 1"><g id="Platform_sh"><path class="cls-1" d="M0,54.91Q0,28,0,1C0,.16.16,0,1,0Q27.34,0,53.69,0c.83,0,1,.16,1,1q0,26.46,0,52.93c0,.84-.17,1-1,1Q26.85,54.89,0,54.91Z"/><path class="cls-2" d="M42.42,12.46q0,5.63,0,11.26c0,.19,0,.41-.23.47a2.18,2.18,0,0,0-1.31-.14c-9.19,0-18.37,0-27.56,0-1,0-1.3-.26-1.28-1.27.06-3.13,0-6.26,0-9.39,0-.72.08-1.09,1-1.08,9.59,0,19.18,0,28.78,0A1,1,0,0,1,42.42,12.46Z"/><path class="cls-2" d="M42.42,28.56v5.62a2.33,2.33,0,0,1-1.2.11H13.45c-1.35,0-1.35,0-1.35-1.4V30c0-1.68-.2-1.52,1.47-1.52H41.1A2.69,2.69,0,0,1,42.42,28.56Z"/><path class="cls-2" d="M42.22,38.6c.53,1.26.16,2.57.2,3.86,0,.36-.46.24-.71.24l-29.5,0a21.19,21.19,0,0,1-.11-3.38c0-.4.17-.6.58-.59s.57,0,.85,0H40.89A3.52,3.52,0,0,0,42.22,38.6Z"/><path d="M42.42,12.46c-9.58,0-19.17,0-28.76,0-1.19,0-1.5.34-1.47,1.5.08,2.88.08,5.77,0,8.65,0,1.07.28,1.37,1.36,1.36,9.1,0,18.2,0,27.3,0,.46,0,1-.2,1.38.25-.73,0-1.46,0-2.19,0-9,0-18,0-26.94,0-.87,0-1.17-.14-1.15-1.1.07-3.33,0-6.67,0-10,0-.67,0-1,.89-1,9.63,0,19.26,0,28.89,0C42,12.22,42.33,12,42.42,12.46Z"/><path d="M42.42,28.56c-9.62,0-19.25,0-28.87,0-1.09,0-1.44.3-1.35,1.37a18.15,18.15,0,0,1,0,3c-.07.95.24,1.26,1.22,1.25,4-.06,8,0,11.94,0H42.42c-.25.52-.71.23-1.05.23-9.43,0-18.85,0-28.27,0-.86,0-1.22-.13-1.15-1.1a31.71,31.71,0,0,0,0-4c-.05-.83.16-1.09,1-1.08,4.35.06,8.69,0,13,0,5.07,0,10.15,0,15.23,0C41.64,28.3,42.14,28,42.42,28.56Z"/><path d="M42.22,38.6c-.43.37-.94.2-1.41.2H14c-1.94,0-1.71-.19-1.73,1.79,0,.68,0,1.37,0,2.06-.52-1.26-.16-2.58-.19-3.86,0-.41.53-.23.82-.23h6.34Z"/></g></g></g></svg>