<svg xmlns="http://www.w3.org/2000/svg" viewBox="0 0 292.54 301.82"><defs><style>.cls-1{fill:#4b4b4b;}.cls-2{fill:#505050;}.cls-3{fill:#6b6b6b;}.cls-4{fill:#565656;}.cls-5{fill:#767676;}.cls-6{fill:#fefefe;}.cls-7{fill:#4c4c4c;}.cls-8{fill:#6e6e6e;}.cls-9{fill:#818181;}.cls-10{fill:#dcdcdc;}.cls-11{fill:#575757;}.cls-12{fill:#1a6894;}.cls-13{fill:#1a6994;}</style></defs><g id="Calque_2" data-name="Calque 2"><g id="Calque_1-2" data-name="Calque 1"><g id="Postgresql"><path class="cls-1" d="M236.08,217.05c-1.09.15-2.14-.31-3.24-.26-.68,0-1.05.12-1.15,1-.22,2-.41,4.07-.46,6.12-.09,3.79-.39,7.57-.67,11.34-.37,5.05-.92,10.06-1.74,15-1.55,9.49-3.95,18.73-8.74,27.16A45,45,0,0,1,211,288.78c-6.35,5.7-13.92,8.69-22,10.76a69.5,69.5,0,0,1-10.78,2.06c-9.07.84-17.56-.65-24.91-6.47a35.41,35.41,0,0,1-11.12-16A90.92,90.92,0,0,1,137.4,263c-.46-2.69-.78-5.41-1.05-8.13-.39-3.89-.75-7.79-1-11.69-.2-3.55-.2-7.12-.28-10.69,1.5-2.3,3.67-4,5.58-5.9.28-.27.69-.51,1,0,.27,1.05,0,2.14.27,3.18.29,5.31.29,10.62.62,15.93.36,5.76.78,11.5,1.5,17.23a40.18,40.18,0,0,0,8.74,20.48,26.36,26.36,0,0,0,17.66,9.83,39.84,39.84,0,0,0,12.61-.5,69.82,69.82,0,0,0,12.53-3.52c11-4.24,17.86-12.08,21-23.35a136.54,136.54,0,0,0,3.16-17.13c1.84-12.58,3.32-25.21,4.81-37.84.13-1,.22-2.1.36-3.14s.57-1.47,1.65-1.19a46,46,0,0,0,13.93,1c8.6-.48,17.07-1.77,24.93-5.58a53.61,53.61,0,0,0,13.76-9.37,15.55,15.55,0,0,0,3.53-4.77c1.95-4.28-.46-8.29-5.17-8.58a21.87,21.87,0,0,0-5.82.39,111.07,111.07,0,0,1-16,2.2,35.53,35.53,0,0,1-10.78-.72,16.83,16.83,0,0,1-3.1-1.11c-1.41-.68-1.59-1.23-.76-2.57,2.93-4.69,5.85-9.38,8.57-14.2a285.88,285.88,0,0,0,18.16-38.7,258,258,0,0,0,9.48-30,170.36,170.36,0,0,0,4.39-25.68c.16-1.86.27-3.73.41-5.59a13.21,13.21,0,0,0,0-5.09c-.28-2.42-.44-4.85-.77-7.27a27.54,27.54,0,0,0-6.66-14.75,77.5,77.5,0,0,0-24.41-19.09A83.42,83.42,0,0,0,222,9.17a138.39,138.39,0,0,0-14.1-.71,6.11,6.11,0,0,0-2.62.2c-4.61.16-9.17.85-13.75,1.37a1.55,1.55,0,0,1-.76-.34c-1.71-1.27-1.77-1.86-.27-3.34,2-1.93,3.82-4,5.9-5.78A16.16,16.16,0,0,1,200,.26c1.2-.11,2.42-.08,3.61-.26h13.17a12.1,12.1,0,0,0,3.32.42A101.52,101.52,0,0,1,230.71,1.8a92.82,92.82,0,0,1,16.86,4.75,83.95,83.95,0,0,1,28.8,18.66A86.05,86.05,0,0,1,284.15,34a33.39,33.39,0,0,1,5.93,14.2,68.85,68.85,0,0,1,1.11,16.58,159,159,0,0,1-2.79,22.46A246.36,246.36,0,0,1,278.74,122c-2.12,6.06-4.53,12-7.06,17.9-3,7.09-6.43,14-10,20.85-2,3.89-4.12,7.75-6.45,11.48a1.43,1.43,0,0,0-.38,1.09,71.23,71.23,0,0,0,8.22-.8c4.07-.51,8-1.72,12.14-1.9,4.75-.21,9.15.73,12.75,4a13.73,13.73,0,0,1,4.53,9.82c.29,5.87-2.3,10.32-6.12,14.31s-8.61,7.11-13.48,9.9A58.47,58.47,0,0,1,255.64,215a72.37,72.37,0,0,1-16.34,1.82C238.24,217.12,237.15,216.78,236.08,217.05Z"/><path class="cls-2" d="M22.4,175c-2.5-6.22-4.51-12.61-6.53-19-3-9.61-5.6-19.36-8-29.15-1.68-6.94-3.13-13.95-4.49-21C2.38,100.58,1.53,95.29.77,90A48.13,48.13,0,0,1,.2,82.87,3.4,3.4,0,0,0,0,81V79a17.94,17.94,0,0,0,0-4.63V70.73A33.89,33.89,0,0,0,.21,65.9,75.08,75.08,0,0,1,6.54,39.14,56.84,56.84,0,0,1,18.59,21.39,56.22,56.22,0,0,1,38.67,8.57,74.31,74.31,0,0,1,61,3.92a22,22,0,0,1,3.89-.17c2.29,0,4.58.08,6.86,0a105.74,105.74,0,0,1,10.67.82,166.65,166.65,0,0,1,31.44,7.05,3.21,3.21,0,0,0,2.67-.23A68.64,68.64,0,0,1,130.8,5.45a70.32,70.32,0,0,1,16.81-2.52,38.12,38.12,0,0,1,6.32-.11,6.42,6.42,0,0,0,2.89.14,95.26,95.26,0,0,1,14.89,1.32,13.29,13.29,0,0,0,6.45-.47,64.41,64.41,0,0,1,6.27-1.54A3.3,3.3,0,0,1,186,2.16c.88.48.26,1-.07,1.32-1.06,1.16-2.2,2.24-3.31,3.35s-1,1.06,0,2.19c.6.68,1.68,1.06,1.56,2.25-1.15.77-2.53.82-3.81,1.19-1.71.51-3.45.94-5.13,1.55a4.27,4.27,0,0,1-2.27.14A113.68,113.68,0,0,0,159,12a85.64,85.64,0,0,0-15.44.13,60.74,60.74,0,0,0-20.61,5.93,48.47,48.47,0,0,0-4.85,2.8,3.08,3.08,0,0,1-3,.36A136.9,136.9,0,0,0,97.54,16.1,134.3,134.3,0,0,0,77.6,12.86a108.71,108.71,0,0,0-13-.43c-11.14.51-21.83,2.71-31.48,8.68A46.1,46.1,0,0,0,16.73,38.76c-4.51,8.33-6.6,17.33-7.53,26.67-.19,2-.16,4-.48,5.95a13.17,13.17,0,0,0,0,3.26c0,1,0,2.09,0,3.14a13.26,13.26,0,0,0,0,3.27c.69,10.69,2.83,21.16,5,31.61,2.29,11,5,21.92,8.15,32.74q3.09,10.71,6.79,21.23a3.8,3.8,0,0,1,.38,1.65.65.65,0,0,1-.11.34,68.89,68.89,0,0,1-6.19,6.25A.59.59,0,0,1,22.4,175Z"/><path class="cls-3" d="M0,74.39A10.79,10.79,0,0,1,0,79Z"/><path class="cls-4" d="M22.4,175a85.73,85.73,0,0,1,6.47-6.46c.78.28.84,1,1.07,1.66a186.08,186.08,0,0,0,8.7,20.1,78,78,0,0,0,10.63,16.26,27.92,27.92,0,0,0,10.6,8,17.37,17.37,0,0,0,4.61,1.07,4.12,4.12,0,0,0,2.53,0c6.2-.77,10.81-4.26,14.7-8.82,5.88-6.89,11.73-13.81,17.87-20.47,1.68-1.83,3.32-3.68,5-5.48a2,2,0,0,1,2.62-.43,38,38,0,0,0,14.15,3.86c.51.05,1.14,0,1.39.56s-.18,1.08-.55,1.51c-1.16,1.36-2.27,2.77-3.34,4.2a15.7,15.7,0,0,1-8.51,5.56c-4.1,1.21-8.33,1.87-12.44,3a24.24,24.24,0,0,0-5.17,2.12A9.4,9.4,0,0,0,91,202.47a6.45,6.45,0,0,0-.92,9.09,15.66,15.66,0,0,0,6.64,4.8,39.82,39.82,0,0,0,11.55,2.89,43.83,43.83,0,0,0,18.11-1.34,37.82,37.82,0,0,0,12.9-6.69,15.27,15.27,0,0,1,1.36-1c.34-.2.7-.48,1.06,0,.27.76,0,1.58.27,2.36,0,2.31,0,4.63,0,7a44.28,44.28,0,0,0-.13,5.15,5.82,5.82,0,0,1-.08,1.32.84.84,0,0,1-.26.38,56.62,56.62,0,0,0-4.55,4.35c-.62.57-1.23,1.17-1.84,1.75-.47-2.46,0-5-.33-7.54a48,48,0,0,1-16.92,3.94c-1.06.2-2.15-.11-3.21.18a69.8,69.8,0,0,1-13.43-1.61,34.4,34.4,0,0,1-14-6.1,12.06,12.06,0,0,1-2.84-2.59c-.35-.49-.61-.73-1.28-.19a28,28,0,0,1-14.79,6.3,24.31,24.31,0,0,1-11.7-1.76,35.63,35.63,0,0,1-12.82-9.22,74.4,74.4,0,0,1-9.67-13.47,169.39,169.39,0,0,1-11.24-24.17C22.67,175.8,22.54,175.37,22.4,175Z"/><path class="cls-5" d="M236.08,217.05c1.06-.39,2.15-.08,3.22-.19C238.25,217.21,237.15,216.92,236.08,217.05Z"/><path class="cls-6" d="M141.53,219.51v-7.07c0-.8.29-1.62-.17-2.39a39.76,39.76,0,0,1-22.55,9.74,51.29,51.29,0,0,1-19.07-1.85,20.26,20.26,0,0,1-9.2-5.14,7.48,7.48,0,0,1-2.4-5.46,7.25,7.25,0,0,1,3.1-5.63c2.9-2.18,6.31-3.07,9.75-3.86,4.21-1,8.46-1.74,12.48-3.41,2.43-1,4-2.93,5.62-4.87,1-1.27,2.09-2.57,3.11-3.87.21-.27.57-.57.36-.95s-.52-.14-.79-.15a36.39,36.39,0,0,1-14.91-4,1.2,1.2,0,0,0-1.74.24c-2.55,2.62-4.9,5.41-7.4,8.07-1.68,1.78-3.22,3.68-4.91,5.45-1.4,1.46-2.6,3.12-3.94,4.65-1,1.17-2,2.34-3,3.53-1.38,1.64-2.71,3.35-4.18,4.9a29.78,29.78,0,0,1-6.17,5.41,19.1,19.1,0,0,1-8.41,3,8.92,8.92,0,0,1-2.68,0c-4.19-.27-7.68-2.19-10.86-4.75a49.72,49.72,0,0,1-10.82-12.95,145.53,145.53,0,0,1-12.5-26.4c-.41-1.11-.89-2.19-1.34-3.29-.79-2.31-1.58-4.61-2.36-6.92C24.9,156.79,23.4,152,22,147.13Q19,137,16.5,126.77c-1.57-6.48-3.09-13-4.29-19.53-.76-4.23-1.74-8.42-2.37-12.66A79.46,79.46,0,0,1,8.56,83.49c0-.76-.4-1.49-.18-2.27a26,26,0,0,0,0-3.42V74.64a28,28,0,0,0,0-3.43c.22-2.51.32-5,.62-7.53.31-2.74.73-5.46,1.28-8.15A61.07,61.07,0,0,1,17.84,36a45.91,45.91,0,0,1,7.48-9.39,49.16,49.16,0,0,1,15.85-10A66.69,66.69,0,0,1,56,12.76c2-.3,4.06-.41,6.09-.59A53.41,53.41,0,0,1,69.33,12c4.21.2,8.42.38,12.62.89a153.31,153.31,0,0,1,15.83,2.82,124,124,0,0,1,17.58,5.22,2.23,2.23,0,0,0,2.29-.3,51.76,51.76,0,0,1,15-6.86,70.55,70.55,0,0,1,14.42-2.33,105.12,105.12,0,0,1,12.55.27,101.26,101.26,0,0,1,13.87,2.15,2.32,2.32,0,0,0,1.3-.08,59.15,59.15,0,0,1,9-2.56,1.49,1.49,0,0,0,.41-.22c1.1-1,5.68-1.78,7-1.26A93.63,93.63,0,0,1,205.38,8.3c.87-.31,1.79,0,2.67-.18a83.83,83.83,0,0,1,12.58.47,92.21,92.21,0,0,1,21.19,4.56,75.39,75.39,0,0,1,34.36,24.36,26.43,26.43,0,0,1,5.51,13.29c.35,2.41.61,4.82.75,7.25a26,26,0,0,1,0,5.37c-.19,3-.42,5.9-.72,8.84-.32,3.17-.78,6.3-1.29,9.43-.54,3.33-1.28,6.64-2,9.94-1.57,6.83-3.49,13.56-5.7,20.23-1.84,5.56-3.8,11.08-5.94,16.54q-3,7.72-6.56,15.25c-2.25,4.84-4.58,9.64-7.14,14.31-3.49,6.34-7,12.66-11.06,18.66-.24.36-.41.77-.65,1.13-.71,1.08-.6,1.46.64,2a25.51,25.51,0,0,0,9.37,1.8,62.4,62.4,0,0,0,7.62-.3,121.31,121.31,0,0,0,12.83-2,15.61,15.61,0,0,1,7.44-.1,6,6,0,0,1,4.11,8.51,17.72,17.72,0,0,1-4.58,6,47.63,47.63,0,0,1-6,4.71,54.55,54.55,0,0,1-19.58,8.1A86.46,86.46,0,0,1,233.41,208a23.76,23.76,0,0,1-6.93-1.13c-.84-.3-1.15-.12-1.19.89a49.2,49.2,0,0,1-.63,5.8c-.27,1.65-.35,3.33-.55,5-.29,2.4-.62,4.8-.92,7.2-.2,1.53-.36,3.08-.55,4.62-.28,2.28-.51,4.56-.9,6.83-.35,2.08-.51,4.18-.79,6.26s-.61,4.07-.89,6.11c-.25,1.76-.57,3.51-.79,5.27q-.47,3.72-1.29,7.35a49.05,49.05,0,0,1-4.06,11.64,30.72,30.72,0,0,1-8.1,10c-5.76,4.69-12.55,7-19.66,8.68a47,47,0,0,1-13.34,1.4,27.53,27.53,0,0,1-16-5.92c-5.5-4.34-8.71-10.21-11.21-16.57-1.33-3.36-1.7-6.93-2.22-10.47-.61-4.09-.85-8.22-1.14-12.33-.16-2.37-.25-4.76-.34-7.14-.13-3.11-.19-6.22-.23-9.34,0-.77-.53-1.54,0-2.32a23.32,23.32,0,0,1-.12-3.64C141.55,223.91,141.65,221.71,141.53,219.51Z"/><path class="cls-7" d="M191.21,9.75l-7,1.26a26.13,26.13,0,0,1-2.82-2.64c-.55-.49-.11-.77.2-1.08q2.37-2.43,4.75-4.85a67.35,67.35,0,0,1,10-1.47c-2,2-3.85,4-5.86,5.93-.85.81-.95,1.35,0,2A5,5,0,0,1,191.21,9.75Z"/><path class="cls-8" d="M282.44,63.42V58.05A14.06,14.06,0,0,1,282.44,63.42Z"/><path class="cls-9" d="M141.67,226.14l0,3.62a14.55,14.55,0,0,1-.22-3.42l.06-.31Z"/><path class="cls-10" d="M208.05,8.12a7.74,7.74,0,0,1-2.67.18A7.74,7.74,0,0,1,208.05,8.12Z"/><path class="cls-10" d="M8.38,71.21a7,7,0,0,1,0,3.43Z"/><path class="cls-10" d="M8.36,77.8a7,7,0,0,1,0,3.42Z"/><path class="cls-11" d="M153.9,3.21a9.39,9.39,0,0,1,3,.18A8.85,8.85,0,0,1,153.9,3.21Z"/><path class="cls-10" d="M141.67,226.14a.33.33,0,0,1-.13-.11v-6.52A40.77,40.77,0,0,1,141.67,226.14Z"/><path class="cls-8" d="M64.39,215.89h2.68A4.24,4.24,0,0,1,64.39,215.89Z"/><path class="cls-10" d="M141.36,210.05c.62.76.34,1.58.17,2.39C141.39,211.65,141.68,210.83,141.36,210.05Z"/><path class="cls-12" d="M232,78.66a79.26,79.26,0,0,0-8.86-.37c-5.69.16-11.24,1-16.3,3.85-6.33,3.61-9.49,9.25-10.25,16.34-.83,7.78,1,15.17,3.52,22.44,3.31,9.75,8,18.9,12.88,27.92,2.53,4.63,5.2,9.17,7.37,14,2.06,4.59,5.11,8.56,8.25,12.46.63.78,1.23,1.59,1.91,2.46l-1.85.63c-6.18,2.21-9.38,6.77-10.4,13.09-.58,3.54-.23,7.14-.68,10.69-.84,6.77-1.5,13.57-2.34,20.34q-1.45,11.79-3.08,23.55A142.1,142.1,0,0,1,209,263.66c-2.46,9.13-8.06,15.28-17,18.38-5.55,1.92-11.18,3.4-17.11,3.4-8.34,0-14.35-3.8-18.51-10.94C153.2,269,152,263,151.46,256.85c-1.79-20.12-1.75-40.27-1.23-60.43A18.26,18.26,0,0,0,145,182.61a14.65,14.65,0,0,0-13.15-4.49,19.08,19.08,0,0,1,1-3.78c2.23-7.05,5.3-13.77,8.18-20.57,4.56-10.77,5.87-22.05,5.17-33.64a131.82,131.82,0,0,0-3.5-23.46C140.11,86.1,132.32,80,121.43,79.74c-8.62-.19-16.56,2.36-24.24,6-1.1.51-2.16,1.09-3.37,1.7a47.81,47.81,0,0,1,.6-6.36,104.54,104.54,0,0,1,7.27-27.45c3.9-9,9.18-17.07,17-23.29a46.59,46.59,0,0,1,24.21-10,79.63,79.63,0,0,1,46.74,8.46C202,35.16,211.89,44.39,220,55.65a91.77,91.77,0,0,1,11.76,21.79c.12.31.22.61.32.92C232.07,78.43,232,78.51,232,78.66Z"/><path class="cls-12" d="M108.83,27.7a70.1,70.1,0,0,0-6.38,7.46C96,44,91.83,54,89.06,64.56a125.57,125.57,0,0,0-4.15,31.93c0,4.18.39,8.36.56,12.54a158.39,158.39,0,0,1-1.19,26.39c-1.93,15.42,2.45,28.65,13.91,39.35.52.49.53.72.06,1.22-7.9,8.42-15.46,17.14-22.89,26a19.65,19.65,0,0,1-4.57,4,8.62,8.62,0,0,1-9.65.21,28.25,28.25,0,0,1-8.26-8c-5.5-7.48-9.38-15.84-12.86-24.38-6.5-16-11.27-32.57-15.37-49.33-2.69-11-5.09-22.07-6.74-33.28-2-13.82-1.79-27.56,2.6-41,3.74-11.43,10.84-20,22-25,7.46-3.34,15.36-4.58,23.47-4.77a120.64,120.64,0,0,1,32.53,4.11c3.15.79,6.25,1.75,9.37,2.66C108.16,27.26,108.59,27.24,108.83,27.7Z"/><path class="cls-13" d="M188.55,18.81a80,80,0,0,1,8.59-1.46,102.14,102.14,0,0,1,21.9-.51C239.8,18.66,257.21,27,270.3,43.54c2.2,2.78,2.87,6.15,3.34,9.54a77,77,0,0,1-.6,21.86c-4.25,28.39-14.42,54.73-27.81,79.94q-4,7.59-8.65,14.82c-.21.33-.35,1.24-.86.81s-1.55-1-.89-2.08a42.85,42.85,0,0,0,2.94-6,51.51,51.51,0,0,0,3.32-21.25c-.23-6.63-1.24-13.18-1.92-19.77a69.84,69.84,0,0,1,.71-18.21,119.78,119.78,0,0,0,1.85-20,24.88,24.88,0,0,0-2.22-9.06c-9.43-23.44-24.65-41.79-47.3-53.57C191.07,20,189.9,19.46,188.55,18.81Z"/><path class="cls-13" d="M94.05,112.49c-.11-4.51-.27-9-.62-13.52a1.73,1.73,0,0,1,.84-1.82c7.79-5.16,16.22-8.5,25.64-9a18.44,18.44,0,0,1,5,.47c5.53,1.24,8.49,5,9.69,10.26,2.37,10.41,3.8,20.94,3.22,31.66a62.17,62.17,0,0,1-5.67,22.65,160,160,0,0,0-8.42,22.28c-.23.83-.73.72-1.29.7a27.34,27.34,0,0,1-14.94-4.93c-11-7.69-15.94-18.44-15-31.66.58-8.42,1.71-16.81,1.64-25.28C94.05,113.71,94.05,113.1,94.05,112.49Z"/><path class="cls-13" d="M229,161.19c-.23-.39-.39-.62-.51-.87-3.66-8.24-8.54-15.84-12.54-23.91-4.08-8.22-7.89-16.54-10-25.53a39.18,39.18,0,0,1-1.13-9.65c.14-7.47,3.8-12,11.08-13.63,5.46-1.21,11-1,16.48-.37.79.09.77.49.74,1a85,85,0,0,1-1.34,11.48,90.18,90.18,0,0,0-.48,28,111.86,111.86,0,0,1,1.34,16.86A39.35,39.35,0,0,1,229,161.19Z"/><path class="cls-13" d="M97.59,207.67c3.12-1.37,6.32-1.79,9.43-2.53a67.94,67.94,0,0,0,8.52-2.45,20.43,20.43,0,0,0,8.74-6.2l5.87-7.15c.31-.38.64-.74,1-1.09,2.3-2.38,3.87-2.7,7.15-.29a8.68,8.68,0,0,1,3.43,7.23,5,5,0,0,1-1,3.06c-7,9.53-16.35,13.87-28.08,13.27A38.15,38.15,0,0,1,100,209c-.6-.25-1.17-.57-1.74-.87A7.24,7.24,0,0,1,97.59,207.67Z"/><path class="cls-13" d="M273,187.56a31.09,31.09,0,0,1-4.81,3.76c-6.65,4.58-14.12,6.79-22.05,7.72a61.31,61.31,0,0,1-14.58.23,16.32,16.32,0,0,1-4.35-1.08,1.15,1.15,0,0,1-.86-1.16,21.19,21.19,0,0,1,.71-6.14,6.32,6.32,0,0,1,4.16-4.42c1.15-.4,2.32-.73,3.48-1.1a1,1,0,0,1,1,.13c4.1,3,8.85,3.93,13.76,4.24,7.64.48,15.15-.57,22.62-2.05Z"/><path class="cls-6" d="M120.91,92.87a15.87,15.87,0,0,1,7.17,1.48,7.56,7.56,0,0,1,1.63,1.05,2.82,2.82,0,0,1,.54,4.1,8.21,8.21,0,0,1-8.55,3.3,9.36,9.36,0,0,1-6-4.83c-1.08-2-.36-3.76,1.81-4.55A9.67,9.67,0,0,1,120.91,92.87Z"/><path class="cls-6" d="M219.53,90.74a9.8,9.8,0,0,1,4.39.72,2.07,2.07,0,0,1,1.22,2.88,7.8,7.8,0,0,1-13,2.59c-1.51-1.69-1.33-3.09.59-4.31A13.91,13.91,0,0,1,219.53,90.74Z"/></g></g></g></svg>