<svg xmlns="http://www.w3.org/2000/svg" viewBox="0 0 548.73 488.28"><defs><style>.cls-1{fill:#0df;}.cls-2{fill:#fff;}.cls-3{fill:#abf3ff;}</style></defs><g id="Calque_2" data-name="Calque 2"><g id="Calque_1-2" data-name="Calque 1"><g id="React"><path class="cls-1" d="M274.47,195.44a48.84,48.84,0,1,0,48.93,48.75A48.67,48.67,0,0,0,274.47,195.44Zm0,0a48.84,48.84,0,1,0,48.93,48.75A48.67,48.67,0,0,0,274.47,195.44Zm0,0a48.84,48.84,0,1,0,48.93,48.75A48.67,48.67,0,0,0,274.47,195.44Zm0,0a48.84,48.84,0,1,0,48.93,48.75A48.67,48.67,0,0,0,274.47,195.44Zm0,0a48.84,48.84,0,1,0,48.93,48.75A48.67,48.67,0,0,0,274.47,195.44Zm0,0a48.84,48.84,0,1,0,48.93,48.75A48.67,48.67,0,0,0,274.47,195.44Zm0,0a48.84,48.84,0,1,0,48.93,48.75A48.67,48.67,0,0,0,274.47,195.44Zm0,0a48.84,48.84,0,1,0,48.93,48.75A48.67,48.67,0,0,0,274.47,195.44ZM548.5,237a31.5,31.5,0,0,0-1.42-9.34c-5.18-15.36-15.42-26.93-27.81-36.76C503.2,178.19,485,169.3,466,161.89c-9.32-3.63-18.79-6.78-28.38-9.58-1.87-.55-2.44-1.36-1.94-3.33,1.82-7.24,3.35-14.54,4.69-21.88,1.61-8.79,2.72-17.63,3.58-26.51.72-7.45.51-14.93.55-22.4A118.59,118.59,0,0,0,440,44.78c-4-13.83-10.58-26-22.17-35C410.59,4.17,402.58.37,393.23.25H374.47l-.79,0a55.48,55.48,0,0,0-15.92,2.89c-14.14,4.71-27.12,11.71-39.48,19.9-15,9.94-28.6,21.66-41.76,33.89-2,1.91-2.2,2-3.93.24a281.62,281.62,0,0,0-24.54-21.51c-15.49-12.21-31.85-23.05-50.39-30.2C190.4,2.67,183,.31,175.16.25h-19l-.57,0a33.27,33.27,0,0,0-9,1.34c-16.32,5.64-27.06,17.08-33.82,32.61-6,13.7-7.81,28.23-8.38,43a193.55,193.55,0,0,0,.86,23.58c.63,7.68,1.67,15.3,2.87,22.9,1.34,8.5,3.25,16.88,5.19,25.25.56,2.42.38,2.75-2,3.47-1.71.51-3.42,1-5.12,1.56-21.64,6.66-42.59,14.9-61.91,26.89-12.8,7.94-24.47,17.17-33.3,29.52C5.61,217.82,1.41,225.84.55,235.21c-.14,1.6.12,3.24-.55,4.78v8.29a1.23,1.23,0,0,1,.24.91A44.53,44.53,0,0,0,6,270.1c6.4,11.89,15.62,21.27,26.24,29.35C46,310,61.34,317.72,77.29,324.34a350.92,350.92,0,0,0,33.8,11.77c2.7.82,2.76.87,2.16,3.54-2.41,10.68-4.69,21.39-6.24,32.24a271.6,271.6,0,0,0-2.63,29.3,162.69,162.69,0,0,0,.9,22.61c1.25,11.71,3.88,23,9,33.69a57.39,57.39,0,0,0,16.65,21c7.13,5.48,15,9.29,24.18,9.78h20.48c8.53-.46,16.55-2.89,24.38-6.12,16.34-6.76,31-16.29,45-27,9.69-7.4,18.78-15.5,27.71-23.79,1.95-1.81,1.95-1.85,3.89,0,2.27,2.22,4.58,4.37,6.93,6.51,11.56,10.5,23.58,20.43,36.8,28.76,16.46,10.37,33.29,20,53.34,21.55h20c3.23-.7,6.58-.55,9.76-1.7a53.25,53.25,0,0,0,27.63-22.46c9.18-14.68,12.54-31.07,13.29-48a207.87,207.87,0,0,0-.3-25.57c-.7-8.9-1.76-17.75-3.29-26.54-1.38-8-2.95-16-4.95-23.82-.76-3-.58-3.29,1.84-4q15.46-4.43,30.42-10.36c16.27-6.48,31.93-14.13,46.18-24.44,10.08-7.3,19.05-15.68,25.87-26.19,3.62-5.55,6.62-11.44,7.79-18S548.68,243.76,548.5,237ZM292.23,76.39c16.51-15.76,33.95-30.29,54.12-41.24C355,30.44,364,26.59,373.78,24.66c6.19-1.23,12.41-1.61,18.61-.08a28,28,0,0,1,16.33,11.19c4.28,5.89,6.68,12.59,8.34,19.59a116.47,116.47,0,0,1,2.78,25.73,252.67,252.67,0,0,1-5.9,51.35c-.86,4.05-1.82,8.08-2.77,12.11-.43,1.86-.48,1.87-2.23,1.49-13.4-3-26.91-5.39-40.49-7.35q-14.46-2.1-29-3.42a4.13,4.13,0,0,1-3.24-2.11c-9.65-13.59-19.82-26.77-30.64-39.45-4.32-5.07-8.78-10-13.23-15C291.56,77.88,291.2,77.36,292.23,76.39ZM275.11,332.48c-16.49-.11-32.58-.56-48.64-1.71a3.64,3.64,0,0,1-3-2q-15.83-23.44-29.65-48.13c-6.28-11.2-12.2-22.58-17.89-34.1a4.77,4.77,0,0,1,.06-4.74,690.91,690.91,0,0,1,47.4-82,4.13,4.13,0,0,1,3.52-2.09c5.76-.29,11.51-.74,17.28-1q30.35-1.32,60.7,0c5.6.24,11.2.68,16.8.91a4.94,4.94,0,0,1,4.31,2.51,698.75,698.75,0,0,1,47.15,81.62,5,5,0,0,1,0,4.95,684.74,684.74,0,0,1-47.43,82c-.73,1.08-1.35,2-3,2.08-4.63.15-9.24.59-13.87.83C297.47,332.18,286.09,332.36,275.11,332.48Zm30.72,23.1c-1.05,3.33-27.21,34.95-31.5,38.11-11.05-12-21.43-24.58-31.25-37.52a3.88,3.88,0,0,1,.16-.37.28.28,0,0,1,.18-.12,2,2,0,0,1,.48-.05c1.22,0,2.44.05,3.66.11,11.28.55,22.58.52,33.87.47C289.55,356.17,297.67,356,305.83,355.58ZM161.14,274.71a3.89,3.89,0,0,1,1.22-2c9.67,18.57,20.12,36.66,31.5,54.54-2.43.33-4.47-.26-6.49-.54-13.42-1.88-26.78-4.11-40-7.06-.24-.05-.48-.07-.72-.13-1.7-.41-1.76-.43-1.21-2.08,1.9-5.69,3.8-11.39,5.79-17C154.25,291.7,157.62,283.18,161.14,274.71ZM144.92,169.44c16.18-3.66,32.33-6.34,49.1-8.47-5.78,9.25-11.26,18.15-16.48,27.2s-10.25,18.28-15.38,28C155.6,200.63,149.87,185.3,144.92,169.44ZM386.73,272.61a6.65,6.65,0,0,1,1.39,2.58q8.46,20.37,15.25,41.35c.08.23.13.47.2.71.55,1.83.55,1.86-1.25,2.25q-17.49,3.83-35.22,6.39c-2.89.42-5.78.86-8.68,1.25a6.44,6.44,0,0,1-3.15,0C366.54,309.41,377,291.33,386.73,272.61Zm.48-57.13a1.6,1.6,0,0,1-.36,0c-.08,0-.19,0-.21-.05-9.86-18.38-20.09-36.53-31.39-54.08l.34-.42c6,.87,12.05,1.67,18.05,2.62,9.22,1.47,18.4,3.16,27.52,5.17.39.08.79.15,1.19.25,1.77.45,1.79.46,1.22,2.26-4.09,12.93-8.76,25.65-13.86,38.22C388.89,211.51,388,213.52,387.21,215.48Zm-113-120.59c3.27,2,28.57,32.15,31.65,37.76a5,5,0,0,1-.89.16c-20.54-.87-41.07-.66-61.6-.08,0,0-.1-.1-.34-.37Q257.77,112.93,274.25,94.89ZM132.75,52.44a53.66,53.66,0,0,1,5.89-14.12c6.54-10.68,16.22-15.26,28.54-14.67,9.14.43,17.7,3.19,26,6.83,12.8,5.61,24.41,13.2,35.5,21.62A311.3,311.3,0,0,1,256.37,76c1.52,1.46,1.52,1.48.12,3a567.83,567.83,0,0,0-43.67,54.28,4.15,4.15,0,0,1-3.29,2c-13.49,1.31-26.95,3-40.33,5.19-9.62,1.58-19.18,3.43-28.71,5.49-2.08.45-2.11.46-2.59-1.51a294.22,294.22,0,0,1-7.75-44.09c-.54-5.91-.91-11.83-.9-16.55C129.23,72.41,130.06,62.31,132.75,52.44ZM122.38,311.29c-.64,1.93-.64,2-2.47,1.42-18.22-5.27-36-11.69-52.78-20.59C56.25,286.35,46,279.71,37.27,270.87a50.7,50.7,0,0,1-10.18-14.19,27.4,27.4,0,0,1-2.81-12.28,29.71,29.71,0,0,1,4.18-15.28c3.84-6.83,9.19-12.36,15.16-17.33C52.79,204.16,63,198.22,73.74,193a293,293,0,0,1,46-17.22c1.94-.56,2-.55,2.57,1.34a557.75,557.75,0,0,0,25.47,65.57c.66,1.43.23,2.45-.31,3.64C140.34,262,133.81,278,128.1,294.2,126.11,299.87,124.27,305.59,122.38,311.29ZM174,464.09a44.35,44.35,0,0,1-7.54.81c-13.74,0-22.92-5.58-28.88-16.57a66.48,66.48,0,0,1-6.8-21.5c-2-12.68-1.82-25.4-.67-38.15a298.09,298.09,0,0,1,7.48-43.4l.3-1.18c.54-2,.54-2.05,2.58-1.59,13.87,3.12,27.86,5.56,41.93,7.55,8.93,1.27,17.88,2.38,26.86,3.1a4.31,4.31,0,0,1,3.55,2c10.78,15.18,22.21,29.85,34.43,43.91q4.71,5.43,9.59,10.71c.87.95.85,1.5-.06,2.36-16.56,15.82-34.08,30.39-54.34,41.34C193.45,458.37,184.11,462.29,174,464.09Zm241.64-25.67a48,48,0,0,1-7.27,14.8c-5.54,7.35-13,11.1-22.09,11.61-8.35.47-16.3-1.45-24.06-4.27-11.22-4.08-21.5-10-31.35-16.63a289.05,289.05,0,0,1-38.33-31.57c-1.34-1.29-1.34-1.32-.13-2.63a567.07,567.07,0,0,0,44-54.66,4.19,4.19,0,0,1,3.4-1.9,563,563,0,0,0,68.08-10.45c3-.65,2.7-1.21,3.57,2.3a311.17,311.17,0,0,1,7,38.3,211.83,211.83,0,0,1,1.38,23.3C419.76,416.77,419,427.76,415.63,438.42ZM519.66,261c-4.34,7-10.17,12.64-16.61,17.67-10.7,8.36-22.58,14.7-34.95,20.17a301.53,301.53,0,0,1-38.74,13.83c-2,.58-2,.57-2.65-1.42a569.12,569.12,0,0,0-25.29-65.13,3.88,3.88,0,0,1,0-3.63,572.46,572.46,0,0,0,25.36-65.37c.58-1.83.61-1.87,2.32-1.37,19.69,5.76,38.9,12.74,56.85,22.82,9.46,5.31,18.37,11.38,26,19.19a48.91,48.91,0,0,1,10.8,15.79,29.41,29.41,0,0,1,2.16,10.63A32.06,32.06,0,0,1,519.66,261ZM323.4,244.19a48.84,48.84,0,1,0-48.79,48.93A48.79,48.79,0,0,0,323.4,244.19Zm-48.93-48.75a48.84,48.84,0,1,0,48.93,48.75A48.67,48.67,0,0,0,274.47,195.44Zm0,0a48.84,48.84,0,1,0,48.93,48.75A48.67,48.67,0,0,0,274.47,195.44Zm0,0a48.84,48.84,0,1,0,48.93,48.75A48.67,48.67,0,0,0,274.47,195.44Zm0,0a48.84,48.84,0,1,0,48.93,48.75A48.67,48.67,0,0,0,274.47,195.44Zm0,0a48.84,48.84,0,1,0,48.93,48.75A48.67,48.67,0,0,0,274.47,195.44Zm0,0a48.84,48.84,0,1,0,48.93,48.75A48.67,48.67,0,0,0,274.47,195.44Z"/><path class="cls-2" d="M373.69,488.28c-20.05-1.56-36.88-11.18-53.34-21.55-13.22-8.33-25.24-18.26-36.8-28.76-2.35-2.14-4.66-4.29-6.93-6.51-1.94-1.9-1.94-1.86-3.89,0-8.93,8.29-18,16.39-27.71,23.79-14,10.67-28.68,20.2-45,27-7.83,3.23-15.85,5.66-24.38,6.12,1.63-.82,3.44-.82,5.16-1.19a125.46,125.46,0,0,0,33.32-12.77c16.45-8.89,31.29-20.05,45.36-32.28,4.6-4,9.07-8.14,13.48-12.35,1.69-1.62,1.32-1.82,3.18,0a340.59,340.59,0,0,0,28.91,25c12.48,9.55,25.59,18.08,40,24.59a110.1,110.1,0,0,0,27.34,8.56A2.66,2.66,0,0,1,373.69,488.28Z"/><path class="cls-3" d="M175.14,0l0,.42L155.6.45a2.26,2.26,0,0,0,0-.45Z"/><path class="cls-3" d="M373.67.45a2.26,2.26,0,0,0,0-.45H393.2a1.9,1.9,0,0,1,0,.41Z"/><path class="cls-2" d="M323.4,244.19a48.84,48.84,0,1,1-48.93-48.75A48.89,48.89,0,0,1,323.4,244.19Z"/><path class="cls-1" d="M323.4,244.19a48.84,48.84,0,1,1-48.93-48.75A48.89,48.89,0,0,1,323.4,244.19Z"/></g></g></g></svg>