<svg xmlns="http://www.w3.org/2000/svg" viewBox="0 0 153.79 173.99"><g id="Calque_2" data-name="Calque 2"><g id="Calque_1-2" data-name="Calque 1"><g id="Shopify"><path d="M107.76,171.4q0-74.82,0-149.63a4.61,4.61,0,0,0-.15-1.57,2.7,2.7,0,0,0-1.9,0c-1.68.46-3.36.93-5,1.47-.74.24-1,.11-1.29-.66a29.65,29.65,0,0,0-3.51-7.47c-3.56-5.39-8.3-8.73-15-8.42-.6,0-.87-.3-1.21-.66A14,14,0,0,0,67,.16,24.29,24.29,0,0,0,53,7.42c-9.2,9.06-14.44,20.24-17.09,32.73a2.31,2.31,0,0,1-1.84,2.1c-5.87,1.74-11.7,3.63-17.54,5.46a3.8,3.8,0,0,0-2.89,3.38c-.62,4.74-1.29,9.48-1.91,14.22-1,7.16-1.86,14.32-2.8,21.48S7,101.18,6.11,108.38L3.53,128.29c-.85,6.59-1.68,13.19-2.57,19.78a48.62,48.62,0,0,1-1,6.46v1L26.15,160l31.56,5.46q18.1,3.12,36.23,6.24c4.47.77,9,1.51,13.44,2.26C108,173.2,107.76,172.27,107.76,171.4ZM78.15,12.55a37.44,37.44,0,0,1,2.11,10.19c.12,1.41.13,2.83.2,4.25,0,.52,0,.9-.67,1.09-5.69,1.74-11.37,3.51-17.29,5.34C64.57,26.33,67.4,20,72.6,14.86A19.66,19.66,0,0,1,76.5,12C77.35,11.48,77.76,11.52,78.15,12.55ZM41.83,38.9C44.65,28.46,49.22,19,57.07,11.34A19.22,19.22,0,0,1,67.65,5.71a8.8,8.8,0,0,1,6.13,1.18c-10,6.41-14.51,16.23-17.16,27.24a1.88,1.88,0,0,1-1.49,1.59c-4.2,1.24-8.39,2.55-12.56,3.87C41.76,39.84,41.62,39.65,41.83,38.9ZM93.91,23.69,86.6,26c-.79.24-.53-.43-.55-.72A63,63,0,0,0,85.19,17a48.26,48.26,0,0,0-1.3-5.17c-.09-.28-.41-.62-.06-.86.17-.11.54,0,.8.09a11.7,11.7,0,0,1,5.52,4,24.56,24.56,0,0,1,4,7.72c0,.12.06.24.09.36C94.36,23.51,94.17,23.61,93.91,23.69Z" style="fill:#88c029"/><path d="M107.38,174q0-76.26,0-152.52c0-.42-.16-.9.24-1.26.73,0,1.15.53,1.62,1,3.32,3.23,6.67,6.43,10,9.7a3.17,3.17,0,0,0,2.47,1c3.53,0,7.07.06,10.61.12,2,0,2.4.52,2.69,2.52.81,5.77,1.69,11.53,2.54,17.3s1.71,11.53,2.57,17.29,1.73,11.62,2.59,17.42,1.68,11.46,2.53,17.18,1.73,11.61,2.59,17.42,1.69,11.54,2.54,17.3S152,150,152.9,155.74c.29,1.92.52,3.85.85,5.77.15.82-.13,1.11-.91,1.3q-11.91,2.91-23.81,5.87l-21,5.26A3,3,0,0,1,107.38,174Z" style="fill:#4e8f30"/><path d="M52.48,143.81a34.85,34.85,0,0,1-23-8.15,1.7,1.7,0,0,1-.62-2c1.06-4.37,2.12-8.74,3.11-13.13.23-1.06.49-1,1.26-.45a34.29,34.29,0,0,0,12.9,5.79,11.26,11.26,0,0,0,4.48,0c4-.89,6.05-4.67,4.92-8.88a11.24,11.24,0,0,0-4.08-5.91c-2.55-2-5.21-3.88-7.79-5.86C39.22,101.89,36,97.69,35,92.14c-2.26-11.88,2.21-25.5,14.57-32.61A40.6,40.6,0,0,1,79,55.11c2.68.57,2.66.65,2,3.28-1.5,5.56-3,11.11-4.46,16.68-.24,1-.55,1-1.38.7-5.31-1.89-10.72-2.71-16.26-1.18-3.23.89-5.54,2.81-6.21,6.3a6.34,6.34,0,0,0,1.88,5.89,33.74,33.74,0,0,0,6.23,4.66,74.44,74.44,0,0,1,9.17,6.63c6.24,5.57,8.77,12.59,8.35,20.81a27.89,27.89,0,0,1-4.46,14.47c-4.44,6.58-10.78,9.88-18.62,10.45C54.27,143.86,53.37,143.81,52.48,143.81Z" style="fill:#fefefe"/></g></g></g></svg>