<svg xmlns="http://www.w3.org/2000/svg" viewBox="0 0 194.47 192.09"><defs><style>.cls-1{fill:#d2c5fe;}.cls-2{fill:#9273fe;}</style></defs><g id="Calque_2" data-name="Calque 2"><g id="Calque_1-2" data-name="Calque 1"><g id="Strapi"><path class="cls-1" d="M130.9,192.09c-1.56-.71-1.7-2.1-1.7-3.57q0-28.14,0-56.3c0-1.56,0-1.56-1.6-1.56H67.16c-2.61,0-4.27-1.1-4.87-3.15a5.24,5.24,0,0,1-.13-1.57V66c0-.53,0-1.06,0-1.59l.16-.17A3.18,3.18,0,0,1,64,64H124.5c3.24,0,4.94,1.57,5.28,4.8.07.73.05,1.46.05,2.19v57c0,2.3,0,2.3,2.25,2.3h59.44a14.53,14.53,0,0,1,2.19.07c1,.25.62.76.19,1.21-1.23,1.29-2.45,2.61-3.8,3.77s-2.5,2.31-3.7,3.52c-4.31,4.29-8.53,8.68-12.93,12.89-6.7,6.38-13.06,13.1-19.75,19.48-6.11,5.83-11.94,11.93-18,17.79a13,13,0,0,1-3.84,3.09Z"/><path class="cls-1" d="M0,61.68c.43-.48.84-1,1.3-1.44C7,54.56,12.59,48.8,18.39,43.23c6.56-6.3,12.82-12.89,19.4-19.16C44,18.13,50,11.92,56.14,5.92c2-1.92,4-3.79,6-5.68.6.64.41,1.45.41,2.2q0,21.68,0,43.34,0,8.28,0,16.56a2.84,2.84,0,0,1-.36,2l-.06.06-5.11,0q-26.76,0-53.53,0A4.22,4.22,0,0,1,0,63.14Z"/><path class="cls-2" d="M62.19,64.33c0-.53,0-1.06,0-1.59V1.7c0-.49,0-1,0-1.46.42-.38.93-.2,1.4-.2H189.19c3.78,0,5.27,1.52,5.27,5.36V129.1a2.63,2.63,0,0,1-.2,1.54q-31.68,0-63.36,0c-1.3,0-1.51-.41-1.51-1.59q0-29.61,0-59.21a9.61,9.61,0,0,0-.16-1.93c-.5-2.39-1.89-3.59-4.31-3.59h-61C63.33,64.36,62.76,64.34,62.19,64.33Z"/></g></g></g></svg>