<svg xmlns="http://www.w3.org/2000/svg" viewBox="0 0 499.84 499.76"><defs><style>.cls-1{fill:#007acb;}.cls-2{fill:#fff;}</style></defs><g id="Calque_2" data-name="Calque 2"><g id="Calque_1-2" data-name="Calque 1"><g id="Typescript"><path class="cls-1" d="M0,455.12V44.39a20.27,20.27,0,0,0,.55-4.78C1.29,30.08,6,22.37,12.06,15.44A47.71,47.71,0,0,1,32.23,1.82C35.66.6,39.22.62,42.75.24c.71-.07,1.46.23,2.13-.24H455.61a37.15,37.15,0,0,0,5.75.53c7.11.43,13.1,3.69,18.7,7.63a48.91,48.91,0,0,1,17.58,22.49c1.93,4.88,2,10,2.12,15.07v408c1.44,21.83-17,40.31-34.59,45a48.06,48.06,0,0,1-10.87,1H43.83a9.37,9.37,0,0,0-2.36-.24c-9.88-.42-18-4.89-25.23-11.19a49.53,49.53,0,0,1-14.63-22C.48,463,.72,459.46.25,456A1.45,1.45,0,0,0,0,455.12Z"/><path class="cls-2" d="M448.93,286c-.47-.26-.83-.42-1.16-.64-12.36-7.91-26-12.07-40.49-13.66a75.21,75.21,0,0,0-25.21,1,35.37,35.37,0,0,0-13.94,6.13c-4.85,3.74-7.68,8.55-7.55,14.82a17.22,17.22,0,0,0,3.2,9.81,32.66,32.66,0,0,0,7.18,7.24c5.61,4.24,11.86,7.36,18.19,10.33,8,3.75,16.33,6.84,24.27,10.77a133.92,133.92,0,0,1,18.77,10.81c8.17,5.82,15.22,12.68,20,21.62a56.05,56.05,0,0,1,6.37,22.07,73.19,73.19,0,0,1-2.26,27.05c-4.44,15.17-14.11,26.09-27.84,33.61a89.15,89.15,0,0,1-27.36,9.17,174.51,174.51,0,0,1-46.15,1.8c-13.07-1.11-25.93-3.38-38.21-8.25-2-.78-3.85-1.72-5.81-2.52a1.94,1.94,0,0,1-1.37-2.25c0-.41,0-.82,0-1.22v-46c1,.74,1.56,1.14,2.1,1.58a93,93,0,0,0,44.81,19.55c10.69,1.61,21.38,1.65,31.91-1.28a34,34,0,0,0,10.77-5c9.73-7,9.48-19.06,4.06-26.35a39.66,39.66,0,0,0-9.76-9.1,105.18,105.18,0,0,0-15.15-8.33c-7-3.22-14.17-6.1-21.24-9.17-10.12-4.38-19.65-9.74-28-17-10.49-9.12-17.42-20.33-19.5-34.19-2.13-14.23-1-28.06,6.21-40.9,6-10.69,14.78-18.42,25.57-24a96.07,96.07,0,0,1,26.73-8.82c14.41-2.71,28.92-2.84,43.47-1.81,12.2.86,24.19,2.9,35.73,7.12,2.08.76,2,.31,2,2.66q0,20.73,0,41.46A2.71,2.71,0,0,1,448.93,286Z"/><path class="cls-2" d="M177.83,366.59q0-43.17,0-86.33c0-3.41.19-3-3-3H118.26c-3.07,0-2.72.28-2.73-2.74q0-17.31,0-34.63c0-.49,0-1,0-1.46-.06-.94.37-1.33,1.3-1.26.56,0,1.14,0,1.7,0H287c3.54,0,3.11-.43,3.12,3.11q0,17,0,33.89a12,12,0,0,0,0,1.47c.18,1.35-.52,1.65-1.71,1.63-2.93-.05-5.86,0-8.78,0h-49c-.65,0-1.3,0-1.95,0-.94,0-1.31.43-1.27,1.34,0,.73,0,1.46,0,2.19q0,85.85,0,171.68c0,3.76.5,3.21-3.21,3.22q-21.71,0-43.41,0c-.57,0-1.14-.05-1.7,0-1,.08-1.31-.39-1.27-1.29,0-.73,0-1.46,0-2.2Q177.83,409.39,177.83,366.59Z"/></g></g></g></svg>