<svg xmlns="http://www.w3.org/2000/svg" viewBox="0 0 719.06 719.35" fill="currentColor" aria-hidden="true">
    <path
            d="M718.86,675.66a36.39,36.39,0,0,1-5.88,21c-9.3,15.91-23.58,22.67-41.56,22.67H48.58c-22.23,0-38.78-10.54-45.88-29.41A41.3,41.3,0,0,1,0,675.33q0-90,0-180c0-25.62,19.37-45.61,44.19-45.76,25.54-.15,45.6,19.55,45.7,45.42.17,42.82,0,85.65,0,128.47,0,2,.18,4,.27,6a.75.75,0,0,1,.87.25c21.48-.1,43-.26,64.45-.27q120.21-.06,240.41,0,114.21,0,228.42.11c4.07,0,4.82-1.19,4.81-5q-.21-64.23-.08-128.46c0-23.45,14.33-41,37.18-45.91,24.85-5.37,52.38,15.16,52.57,40.52C719.29,552.37,718.91,614,718.86,675.66Z"/>
    <path
            d="M570.34,347.29Q528.92,388.59,487.6,430q-47.37,47.34-94.72,94.71c-19.77,19.77-46.79,19.89-66.51.21C314.46,513,302.66,501,290.82,489.08l-5.49-5.41-3.49-3.62a106.89,106.89,0,0,1-13.1-13.13Q244.1,442.47,219.46,418q-35.39-35.31-70.68-70.7c-13.2-13.23-17.34-29.09-11.6-46.73s18.56-27.8,36.67-30.45c14.7-2.15,27.57,2.72,38.13,13.28q39.08,39,78.11,78.11Q301.88,373.3,313.72,385c1.68-1.09.78-2.54.78-3.73q.11-82.71.11-165.44c0-55.65.34-111.3-.22-167-.27-26.56,16-42.33,32.11-47,29.52-8.56,57.78,12.57,57.89,43.5.18,49.48.05,99,.05,148.46V384.77c2.07.21,2.66-1.45,3.62-2.42q49.49-49.41,98.93-98.86c12.6-12.55,27.81-16.87,44.89-11.88,17.28,5.05,28.1,17,31.5,34.65C586.42,322,581.81,335.84,570.34,347.29Z"/>
</svg>